<svg width="24" height="24" viewBox="0 0 24 24" fill="none" xmlns="http://www.w3.org/2000/svg">
<path d="M21 17L15.81 11.67C15.7162 11.5636 15.6007 11.4784 15.4714 11.42C15.3421 11.3616 15.2019 11.3314 15.06 11.3314C14.9181 11.3314 14.7779 11.3616 14.6486 11.42C14.5193 11.4784 14.4038 11.5636 14.31 11.67L11.56 14.58C11.4662 14.6864 11.3507 14.7716 11.2214 14.83C11.0921 14.8884 10.9519 14.9186 10.81 14.9186C10.6681 14.9186 10.5279 14.8884 10.3986 14.83C10.2693 14.7716 10.1538 14.6864 10.06 14.58L4 8.25" stroke="#353E50" stroke-width="1.5" stroke-linecap="round" stroke-linejoin="round"/>
<path d="M9 7H4C3.73478 7 3.48043 7.10536 3.29289 7.29289C3.10536 7.48043 3 7.73478 3 8V13" stroke="#353E50" stroke-width="1.5" stroke-linecap="round" stroke-linejoin="round"/>
</svg>
