<svg width="24" height="24" viewBox="0 0 24 24" fill="none" xmlns="http://www.w3.org/2000/svg">
<path d="M16 18L12.3 21.87C12.2609 21.9099 12.2142 21.9416 12.1627 21.9633C12.1112 21.9849 12.0559 21.9961 12 21.9961C11.9441 21.9961 11.8888 21.9849 11.8373 21.9633C11.7858 21.9416 11.7391 21.9099 11.7 21.87L8 18" stroke="#353E50" stroke-width="1.5" stroke-linecap="round" stroke-linejoin="round"/>
<path d="M12 22V15" stroke="#353E50" stroke-width="1.5" stroke-linecap="round" stroke-linejoin="round"/>
<path d="M16 6.00003L12.3 2.13003C12.2609 2.09012 12.2142 2.05841 12.1627 2.03676C12.1112 2.01512 12.0559 2.00397 12 2.00397C11.9441 2.00397 11.8888 2.01512 11.8373 2.03676C11.7858 2.05841 11.7391 2.09012 11.7 2.13003L8 6.00003" stroke="#353E50" stroke-width="1.5" stroke-linecap="round" stroke-linejoin="round"/>
<path d="M12 2V9" stroke="#353E50" stroke-width="1.5" stroke-linecap="round" stroke-linejoin="round"/>
<path d="M3 12H21" stroke="#353E50" stroke-width="1.5" stroke-linecap="round" stroke-linejoin="round"/>
</svg>
