<svg width="24" height="24" viewBox="0 0 24 24" fill="none" xmlns="http://www.w3.org/2000/svg">
<path d="M12 20L4.27 12.6C4.18487 12.5249 4.11669 12.4326 4.07 12.3292C4.0233 12.2257 3.99915 12.1135 3.99915 12C3.99915 11.8865 4.0233 11.7743 4.07 11.6708C4.11669 11.5674 4.18487 11.4751 4.27 11.4L12 4" stroke="#353E50" stroke-width="1.5" stroke-linecap="round" stroke-linejoin="round"/>
<path d="M20 20L12.27 12.6C12.1849 12.5249 12.1167 12.4326 12.07 12.3292C12.0233 12.2257 11.9991 12.1135 11.9991 12C11.9991 11.8865 12.0233 11.7743 12.07 11.6708C12.1167 11.5674 12.1849 11.4751 12.27 11.4L20 4" stroke="#353E50" stroke-width="1.5" stroke-linecap="round" stroke-linejoin="round"/>
</svg>
