<svg width="24" height="24" viewBox="0 0 24 24" fill="none" xmlns="http://www.w3.org/2000/svg">
<path d="M12 8L12 20" stroke="#353E50" stroke-width="1.5" stroke-linecap="round" stroke-linejoin="round"/>
<path d="M16 16L12.3631 19.8418C12.3167 19.8917 12.2605 19.9315 12.198 19.9587C12.1356 19.9859 12.0681 20 12 20C11.9319 20 11.8644 19.9859 11.802 19.9587C11.7395 19.9315 11.6833 19.8917 11.6369 19.8418L8 16" stroke="#353E50" stroke-width="1.5" stroke-linecap="round" stroke-linejoin="round"/>
<path d="M15.5 12L16.7314 12C17.5764 12 18.3303 11.4689 18.6147 10.6732L20.0445 6.67318C20.5101 5.3706 19.5445 4 18.1612 4L15.3972 4L8.70292 4L5.83882 4C4.45553 4 3.48992 5.3706 3.95552 6.67318L5.3853 10.6732C5.66973 11.4689 6.42357 12 7.2686 12L8.5 12" stroke="#353E50" stroke-width="1.5" stroke-linecap="round" stroke-linejoin="round"/>
</svg>
