<svg width="24" height="24" viewBox="0 0 24 24" fill="none" xmlns="http://www.w3.org/2000/svg">
<path d="M12 13L16.8536 8.3536C16.9 8.30717 16.9369 8.25204 16.962 8.19137C16.9872 8.1307 17.0001 8.06567 17.0001 8C17.0001 7.93433 16.9872 7.8693 16.962 7.80863C16.9369 7.74796 16.9 7.69283 16.8536 7.6464L12 3" stroke="#353E50" stroke-width="1.5" stroke-linecap="round" stroke-linejoin="round"/>
<path d="M16.7071 8H3" stroke="#353E50" stroke-width="1.5" stroke-linecap="round" stroke-linejoin="round"/>
<path d="M21 21V3" stroke="#353E50" stroke-width="1.5" stroke-linecap="round" stroke-linejoin="round"/>
<path d="M3 21V15" stroke="#353E50" stroke-width="1.5" stroke-linecap="round" stroke-linejoin="round"/>
<path d="M7 18V20C7 20.5523 7.44772 21 8 21H16C16.5523 21 17 20.5523 17 20V18C17 17.4477 16.5523 17 16 17H8C7.44772 17 7 17.4477 7 18Z" stroke="#353E50" stroke-width="1.5" stroke-linecap="round" stroke-linejoin="round"/>
</svg>
