<svg width="24" height="24" viewBox="0 0 24 24" fill="none" xmlns="http://www.w3.org/2000/svg">
<path d="M12 4L19.73 11.4C19.8151 11.4751 19.8833 11.5674 19.93 11.6708C19.9767 11.7743 20.0009 11.8865 20.0009 12C20.0009 12.1135 19.9767 12.2257 19.93 12.3292C19.8833 12.4326 19.8151 12.5249 19.73 12.6L12 20" stroke="#353E50" stroke-width="1.5" stroke-linecap="round" stroke-linejoin="round"/>
<path d="M4 4L11.73 11.4C11.8151 11.4751 11.8833 11.5674 11.93 11.6708C11.9767 11.7743 12.0008 11.8865 12.0008 12C12.0008 12.1135 11.9767 12.2257 11.93 12.3292C11.8833 12.4326 11.8151 12.5249 11.73 12.6L4 20" stroke="#353E50" stroke-width="1.5" stroke-linecap="round" stroke-linejoin="round"/>
</svg>
