<svg width="24" height="24" viewBox="0 0 24 24" fill="none" xmlns="http://www.w3.org/2000/svg">
<path d="M21 10.9999C20.7919 9.00806 19.9254 7.14247 18.5377 5.69851C17.1499 4.25455 15.3201 3.31472 13.3381 3.02779C11.356 2.74087 9.33486 3.12325 7.59459 4.11439C5.85432 5.10554 4.49435 6.64883 3.72998 8.49995" stroke="#353E50" stroke-width="1.5" stroke-linecap="round" stroke-linejoin="round"/>
<path d="M9 9H3.53C3.46186 9.0041 3.3936 8.9942 3.32943 8.97091C3.26526 8.94762 3.20654 8.91144 3.15689 8.8646C3.10724 8.81775 3.0677 8.76124 3.04072 8.69853C3.01373 8.63583 2.99988 8.56826 3 8.5V3" stroke="#353E50" stroke-width="1.5" stroke-linecap="round" stroke-linejoin="round"/>
<path d="M3 13C3.20007 14.9997 4.06369 16.8749 5.45325 18.3268C6.84281 19.7788 8.67834 20.7238 10.6674 21.0114C12.6564 21.299 14.6844 20.9126 16.4283 19.9138C18.1722 18.9149 19.5317 17.3611 20.29 15.5" stroke="#353E50" stroke-width="1.5" stroke-linecap="round" stroke-linejoin="round"/>
<path d="M15 15H20.5C20.6326 15 20.7598 15.0527 20.8536 15.1464C20.9473 15.2402 21 15.3674 21 15.5V21" stroke="#353E50" stroke-width="1.5" stroke-linecap="round" stroke-linejoin="round"/>
</svg>
