<svg width="24" height="24" viewBox="0 0 24 24" fill="none" xmlns="http://www.w3.org/2000/svg">
<path d="M6.49997 3L3.15997 6.15C3.11079 6.19408 3.07145 6.24803 3.04452 6.30834C3.01758 6.36865 3.00366 6.43395 3.00366 6.5C3.00366 6.56605 3.01758 6.63135 3.04452 6.69166C3.07145 6.75197 3.11079 6.80592 3.15997 6.85L6.49997 10" stroke="#353E50" stroke-width="1.5" stroke-linecap="round" stroke-linejoin="round"/>
<path d="M3.75 6.5H17.75C18.5456 6.5 19.3087 6.81607 19.8713 7.37868C20.4339 7.94129 20.75 8.70435 20.75 9.5C20.75 10.2956 20.4339 11.0587 19.8713 11.6213C19.3087 12.1839 18.5456 12.5 17.75 12.5H10.75C9.95435 12.5 9.19129 12.8161 8.62868 13.3787C8.06607 13.9413 7.75 14.7044 7.75 15.5C7.75 16.2956 8.06607 17.0587 8.62868 17.6213C9.19129 18.1839 9.95435 18.5 10.75 18.5H15.75" stroke="#353E50" stroke-width="1.5" stroke-linecap="round" stroke-linejoin="round"/>
<path d="M18.5 21C19.8807 21 21 19.8807 21 18.5C21 17.1193 19.8807 16 18.5 16C17.1193 16 16 17.1193 16 18.5C16 19.8807 17.1193 21 18.5 21Z" stroke="#353E50" stroke-width="1.5" stroke-linecap="round" stroke-linejoin="round"/>
</svg>
