<svg width="24" height="24" viewBox="0 0 24 24" fill="none" xmlns="http://www.w3.org/2000/svg">
<path d="M4.5 19.5L16 8" stroke="#353E50" stroke-width="1.5" stroke-linecap="round" stroke-linejoin="round"/>
<path d="M13 20H5C4.73478 20 4.48043 19.8946 4.29289 19.7071C4.10536 19.5196 4 19.2652 4 19V11" stroke="#353E50" stroke-width="1.5" stroke-linecap="round" stroke-linejoin="round"/>
<path d="M15.5 13C16.39 13 17.26 12.7361 18.0001 12.2416C18.7401 11.7471 19.3169 11.0443 19.6575 10.2221C19.9981 9.39981 20.0872 8.49501 19.9135 7.6221C19.7399 6.74918 19.3113 5.94736 18.682 5.31802C18.0526 4.68868 17.2508 4.2601 16.3779 4.08647C15.505 3.91283 14.6002 4.00195 13.7779 4.34254C12.9557 4.68314 12.2529 5.25991 11.7584 5.99994C11.2639 6.73996 11 7.60999 11 8.5" stroke="#353E50" stroke-width="1.5" stroke-linecap="round" stroke-linejoin="round"/>
</svg>
