<svg width="24" height="24" viewBox="0 0 24 24" fill="none" xmlns="http://www.w3.org/2000/svg">
<path d="M17.5 21L20.84 17.85C20.8892 17.8059 20.9285 17.752 20.9555 17.6917C20.9824 17.6314 20.9963 17.566 20.9963 17.5C20.9963 17.434 20.9824 17.3686 20.9555 17.3083C20.9285 17.248 20.8892 17.1941 20.84 17.15L17.5 14" stroke="#353E50" stroke-width="1.5" stroke-linecap="round" stroke-linejoin="round"/>
<path d="M20.25 17.5H6.25C5.45435 17.5 4.69129 17.1839 4.12868 16.6213C3.56607 16.0587 3.25 15.2956 3.25 14.5C3.25 13.7044 3.56607 12.9413 4.12868 12.3787C4.69129 11.8161 5.45435 11.5 6.25 11.5H13.25C14.0456 11.5 14.8087 11.1839 15.3713 10.6213C15.9339 10.0587 16.25 9.29565 16.25 8.5C16.25 7.70435 15.9339 6.94129 15.3713 6.37868C14.8087 5.81607 14.0456 5.5 13.25 5.5H8.25" stroke="#353E50" stroke-width="1.5" stroke-linecap="round" stroke-linejoin="round"/>
<path d="M5.5 8C6.88071 8 8 6.88071 8 5.5C8 4.11929 6.88071 3 5.5 3C4.11929 3 3 4.11929 3 5.5C3 6.88071 4.11929 8 5.5 8Z" stroke="#353E50" stroke-width="1.5" stroke-linecap="round" stroke-linejoin="round"/>
</svg>
