<svg width="24" height="24" viewBox="0 0 24 24" fill="none" xmlns="http://www.w3.org/2000/svg">
<path d="M17 8L20.87 11.7C20.9099 11.7391 20.9416 11.7858 20.9633 11.8373C20.9849 11.8888 20.9961 11.9441 20.9961 12C20.9961 12.0559 20.9849 12.1112 20.9633 12.1627C20.9416 12.2142 20.9099 12.2609 20.87 12.3L17 16" stroke="#353E50" stroke-width="1.5" stroke-linecap="round" stroke-linejoin="round"/>
<path d="M6.99997 16L3.12997 12.3C3.09006 12.2609 3.05835 12.2142 3.0367 12.1627C3.01506 12.1112 3.00391 12.0559 3.00391 12C3.00391 11.9441 3.01506 11.8888 3.0367 11.8373C3.05835 11.7858 3.09006 11.7391 3.12997 11.7L6.99997 8" stroke="#353E50" stroke-width="1.5" stroke-linecap="round" stroke-linejoin="round"/>
</svg>
