<svg width="24" height="24" viewBox="0 0 24 24" fill="none" xmlns="http://www.w3.org/2000/svg">
<path d="M19.5 19.5L8 8" stroke="#353E50" stroke-width="1.5" stroke-linecap="round" stroke-linejoin="round"/>
<path d="M20 11V19C20 19.2652 19.8946 19.5196 19.7071 19.7071C19.5196 19.8946 19.2652 20 19 20H11" stroke="#353E50" stroke-width="1.5" stroke-linecap="round" stroke-linejoin="round"/>
<path d="M13 8.5C13 7.60999 12.7361 6.73996 12.2416 5.99994C11.7471 5.25991 11.0443 4.68314 10.2221 4.34254C9.39981 4.00195 8.49501 3.91283 7.6221 4.08647C6.74918 4.2601 5.94736 4.68868 5.31802 5.31802C4.68868 5.94736 4.2601 6.74918 4.08647 7.6221C3.91283 8.49501 4.00195 9.39981 4.34254 10.2221C4.68314 11.0443 5.25991 11.7471 5.99994 12.2416C6.73996 12.7361 7.60999 13 8.5 13" stroke="#353E50" stroke-width="1.5" stroke-linecap="round" stroke-linejoin="round"/>
</svg>
