<svg width="24" height="24" viewBox="0 0 24 24" fill="none" xmlns="http://www.w3.org/2000/svg">
<path d="M21 7L15.81 12.33C15.7162 12.4364 15.6007 12.5216 15.4714 12.58C15.3421 12.6384 15.2019 12.6686 15.06 12.6686C14.9181 12.6686 14.7779 12.6384 14.6486 12.58C14.5193 12.5216 14.4038 12.4364 14.31 12.33L11.56 9.42C11.4662 9.31359 11.3507 9.22837 11.2214 9.17C11.0921 9.11163 10.9519 9.08144 10.81 9.08144C10.6681 9.08144 10.5279 9.11163 10.3986 9.17C10.2693 9.22837 10.1538 9.31359 10.06 9.42L4 15.75" stroke="#353E50" stroke-width="1.5" stroke-linecap="round" stroke-linejoin="round"/>
<path d="M9 17H4C3.73478 17 3.48043 16.8946 3.29289 16.7071C3.10536 16.5196 3 16.2652 3 16V11" stroke="#353E50" stroke-width="1.5" stroke-linecap="round" stroke-linejoin="round"/>
</svg>
