<svg width="24" height="24" viewBox="0 0 24 24" fill="none" xmlns="http://www.w3.org/2000/svg">
<path d="M18.5237 5.80002C19.7479 7.08807 20.5633 8.70968 20.8673 10.4605C21.1713 12.2112 20.9502 14.0128 20.2319 15.6381C19.5136 17.2635 18.3303 18.6398 16.831 19.5936C15.3317 20.5475 13.5837 21.0361 11.8071 20.9981C10.0305 20.96 8.305 20.3968 6.84799 19.3796C5.39097 18.3624 4.26769 16.9366 3.61971 15.282C2.97173 13.6274 2.82806 11.818 3.20681 10.0818C3.58556 8.34569 4.46978 6.76052 5.74801 5.52612" stroke="#353E50" stroke-width="1.5" stroke-linecap="round" stroke-linejoin="round" stroke-dasharray="0.1 0.1"/>
<path d="M8 11.4143L11.6372 15.2562C11.6836 15.3061 11.7397 15.3459 11.8021 15.3731C11.8645 15.4003 11.9319 15.4143 12 15.4143C12.0681 15.4143 12.1355 15.4003 12.1979 15.3731C12.2603 15.3459 12.3164 15.3061 12.3628 15.2562L16 11.4143" stroke="#353E50" stroke-width="1.5" stroke-linecap="round" stroke-linejoin="round"/>
<path d="M12 14.4749V3" stroke="#353E50" stroke-width="1.5" stroke-linecap="round" stroke-linejoin="round"/>
</svg>
