<svg width="24" height="24" viewBox="0 0 24 24" fill="none" xmlns="http://www.w3.org/2000/svg">
<path d="M3.5 9.00001C4.13634 7.19694 5.3304 5.64338 6.90906 4.56457C8.48772 3.48576 10.3689 2.93776 12.28 3.00001C14.5653 3.09613 16.7308 4.04839 18.3463 5.66761C19.9618 7.28683 20.9091 9.45451 21 11.74C21.062 13.8394 20.3877 15.8944 19.0941 17.549C17.8004 19.2037 15.9688 20.3537 13.9164 20.8001C11.8641 21.2464 9.72023 20.9608 7.85624 19.9929C5.99225 19.0249 4.52549 17.4356 3.71 15.5" stroke="#353E50" stroke-width="1.5" stroke-linecap="round" stroke-linejoin="round"/>
<path d="M9 15H3.5C3.36739 15 3.24021 15.0527 3.14645 15.1464C3.05268 15.2402 3 15.3674 3 15.5V21" stroke="#353E50" stroke-width="1.5" stroke-linecap="round" stroke-linejoin="round"/>
</svg>
