<svg width="24" height="24" viewBox="0 0 24 24" fill="none" xmlns="http://www.w3.org/2000/svg">
<path d="M3 12C3 10.22 3.52784 8.47991 4.51677 6.99987C5.50571 5.51983 6.91131 4.36628 8.55585 3.68509C10.2004 3.0039 12.01 2.82567 13.7558 3.17294C15.5016 3.5202 17.1053 4.37737 18.364 5.63604C19.6226 6.89472 20.4798 8.49836 20.8271 10.2442C21.1743 11.99 20.9961 13.7996 20.3149 15.4442C19.6337 17.0887 18.4802 18.4943 17.0001 19.4832C15.5201 20.4722 13.78 21 12 21" stroke="#353E50" stroke-width="1.5" stroke-linecap="round" stroke-linejoin="round"/>
<path d="M14.4141 15.2426L14.5589 9.9541C14.5614 9.88605 14.5498 9.81823 14.5249 9.75485C14.5 9.69148 14.4623 9.63392 14.4142 9.58577C14.366 9.53762 14.3084 9.49992 14.2451 9.47501C14.1817 9.4501 14.1139 9.43852 14.0458 9.441L8.75732 9.5857" stroke="#353E50" stroke-width="1.5" stroke-linecap="round" stroke-linejoin="round"/>
<path d="M13.75 10.25L5.63599 18.364" stroke="#353E50" stroke-width="1.5" stroke-linecap="round" stroke-linejoin="round"/>
</svg>
