<svg width="24" height="24" viewBox="0 0 24 24" fill="none" xmlns="http://www.w3.org/2000/svg">
<path d="M11 4.99999H16.5C17.0913 4.99867 17.6771 5.11417 18.2236 5.33985C18.7702 5.56552 19.2668 5.89694 19.6849 6.31507C20.103 6.73319 20.4345 7.22979 20.6601 7.77635C20.8858 8.32291 21.0013 8.90867 21 9.49999C21.0013 10.0913 20.8858 10.6771 20.6601 11.2236C20.4345 11.7702 20.103 12.2668 19.6849 12.6849C19.2668 13.103 18.7702 13.4345 18.2236 13.6601C17.6771 13.8858 17.0913 14.0013 16.5 14H3" stroke="#353E50" stroke-width="1.5" stroke-linecap="round" stroke-linejoin="round"/>
<path d="M8.00012 19L3.27012 14.6C3.18499 14.5249 3.11682 14.4326 3.07012 14.3292C3.02342 14.2257 2.99927 14.1135 2.99927 14C2.99927 13.8865 3.02342 13.7743 3.07012 13.6708C3.11682 13.5674 3.18499 13.4751 3.27012 13.4L8.00012 9" stroke="#353E50" stroke-width="1.5" stroke-linecap="round" stroke-linejoin="round"/>
</svg>
