<svg width="24" height="24" viewBox="0 0 24 24" fill="none" xmlns="http://www.w3.org/2000/svg">
<path d="M12 16V4" stroke="#353E50" stroke-width="1.5" stroke-linecap="round" stroke-linejoin="round"/>
<path d="M16 8L12.3631 4.1582C12.3167 4.10829 12.2605 4.06849 12.198 4.04127C12.1356 4.01405 12.0681 4 12 4C11.9319 4 11.8644 4.01405 11.802 4.04127C11.7395 4.06849 11.6833 4.10829 11.6369 4.1582L8 8" stroke="#353E50" stroke-width="1.5" stroke-linecap="round" stroke-linejoin="round"/>
<path d="M16.0001 12H18.8949C19.225 11.9875 19.5531 12.0564 19.8503 12.2005C20.1475 12.3447 20.4047 12.5597 20.5993 12.8266C20.7938 13.0936 20.9198 13.4043 20.966 13.7314C21.0122 14.0584 20.9773 14.3919 20.8643 14.7023L19.2868 18.7023C19.1259 19.0907 18.8523 19.422 18.5012 19.6533C18.1501 19.8846 17.7378 20.0054 17.3174 20H6.6828C6.2624 20.0054 5.85004 19.8846 5.49898 19.6533C5.14791 19.4219 4.87427 19.0906 4.7134 18.7022L3.1359 14.7022C3.02292 14.3918 2.988 14.0584 3.03422 13.7313C3.08043 13.4042 3.20636 13.0935 3.40092 12.8266C3.59548 12.5596 3.85269 12.3446 4.1499 12.2005C4.44712 12.0563 4.77522 11.9875 5.1053 12H8.0001" stroke="#353E50" stroke-width="1.5" stroke-linecap="round" stroke-linejoin="round"/>
</svg>
