<svg width="24" height="24" viewBox="0 0 24 24" fill="none" xmlns="http://www.w3.org/2000/svg">
<path d="M14.5001 21L11.7701 18.6C11.685 18.5249 11.6168 18.4326 11.5701 18.3292C11.5234 18.2257 11.4993 18.1135 11.4993 18C11.4993 17.8865 11.5234 17.7743 11.5701 17.6708C11.6168 17.5674 11.685 17.4751 11.7701 17.4L14.5001 15" stroke="#353E50" stroke-width="1.5" stroke-linecap="round" stroke-linejoin="round"/>
<path d="M7 18H5C4.46957 18 3.96086 17.7893 3.58579 17.4142C3.21071 17.0391 3 16.5304 3 16V8C3 7.46957 3.21071 6.96086 3.58579 6.58579C3.96086 6.21071 4.46957 6 5 6H19C19.5304 6 20.0391 6.21071 20.4142 6.58579C20.7893 6.96086 21 7.46957 21 8V16C21 16.5304 20.7893 17.0391 20.4142 17.4142C20.0391 17.7893 19.5304 18 19 18H11.5" stroke="#353E50" stroke-width="1.5" stroke-linecap="round" stroke-linejoin="round"/>
</svg>
