<svg width="24" height="24" viewBox="0 0 24 24" fill="none" xmlns="http://www.w3.org/2000/svg">
<path d="M20 16.1C20.6213 14.9128 20.9633 13.5994 21 12.26C21.0619 10.1606 20.3877 8.1056 19.094 6.45097C17.8004 4.79634 15.9687 3.64627 13.9164 3.19995C11.864 2.75363 9.72019 3.03917 7.8562 4.00711C5.99221 4.97505 4.52545 6.56444 3.70996 8.49999" stroke="#353E50" stroke-width="1.5" stroke-linecap="round" stroke-linejoin="round"/>
<path d="M9 9H3.5C3.36739 9 3.24021 8.94732 3.14645 8.85355C3.05268 8.75979 3 8.63261 3 8.5V3" stroke="#353E50" stroke-width="1.5" stroke-linecap="round" stroke-linejoin="round"/>
<path d="M3.5 15C4.13634 16.8031 5.3304 18.3566 6.90906 19.4355C8.48772 20.5143 10.3689 21.0623 12.28 21C14.5653 20.9039 16.7308 19.9516 18.3463 18.3324C19.9618 16.7132 20.9091 14.5455 21 12.26" stroke="#353E50" stroke-width="1.5" stroke-linecap="round" stroke-linejoin="round" stroke-dasharray="0.1 3"/>
</svg>
