<svg width="24" height="24" viewBox="0 0 24 24" fill="none" xmlns="http://www.w3.org/2000/svg">
<path d="M19.23 12.54L19.54 13.01L21.76 16.41C21.9014 16.6232 21.983 16.8704 21.9963 17.1259C22.0097 17.3814 21.9542 17.6358 21.8357 17.8626C21.7172 18.0893 21.5401 18.2801 21.3227 18.4151C21.1054 18.5501 20.8558 18.6243 20.6 18.63H12.27" stroke="#353E50" stroke-width="1.5" stroke-linecap="round" stroke-linejoin="round"/>
<path d="M8.26997 18.63H3.39997C3.14419 18.6243 2.89462 18.5501 2.67727 18.4152C2.45993 18.2802 2.28278 18.0894 2.1643 17.8626C2.04582 17.6359 1.99034 17.3815 2.00365 17.126C2.01696 16.8705 2.09857 16.6232 2.23997 16.41L5.80997 10.94" stroke="#353E50" stroke-width="1.5" stroke-linecap="round" stroke-linejoin="round"/>
<path d="M8.21997 7.25997L8.40997 6.99997L10.83 3.27997C10.9574 3.08604 11.131 2.92683 11.3353 2.81666C11.5395 2.70648 11.7679 2.6488 12 2.6488C12.232 2.6488 12.4604 2.70648 12.6647 2.81666C12.8689 2.92683 13.0425 3.08604 13.17 3.27997L17.17 9.34997" stroke="#353E50" stroke-width="1.5" stroke-linecap="round" stroke-linejoin="round"/>
<path d="M13.48 9.16998L17.18 9.81998C17.246 9.8288 17.3129 9.81193 17.3669 9.77286C17.4209 9.73378 17.4578 9.67548 17.47 9.60998L18.12 5.91998" stroke="#353E50" stroke-width="1.5" stroke-linecap="round" stroke-linejoin="round"/>
<path d="M14.41 15.71L11.76 18.37C11.736 18.3925 11.717 18.4196 11.704 18.4497C11.6909 18.4798 11.6842 18.5122 11.6842 18.545C11.6842 18.5778 11.6909 18.6103 11.704 18.6404C11.717 18.6705 11.736 18.6976 11.76 18.72L14.41 21.37" stroke="#353E50" stroke-width="1.5" stroke-linecap="round" stroke-linejoin="round"/>
<path d="M2.47998 10.92L6.17998 10.27C6.2446 10.2609 6.31029 10.2764 6.36401 10.3134C6.41774 10.3505 6.45556 10.4064 6.46998 10.47L7.11998 14.17" stroke="#353E50" stroke-width="1.5" stroke-linecap="round" stroke-linejoin="round"/>
</svg>
