<svg width="24" height="24" viewBox="0 0 24 24" fill="none" xmlns="http://www.w3.org/2000/svg">
<path d="M12 3L14.73 5.4C14.8151 5.47507 14.8833 5.5674 14.93 5.67085C14.9767 5.7743 15.0008 5.8865 15.0008 6C15.0008 6.1135 14.9767 6.2257 14.93 6.32915C14.8833 6.4326 14.8151 6.52493 14.73 6.6L12 9" stroke="#353E50" stroke-width="1.5" stroke-linecap="round" stroke-linejoin="round"/>
<path d="M12.0001 21L9.27012 18.6C9.18499 18.5249 9.11682 18.4326 9.07012 18.3292C9.02342 18.2257 8.99927 18.1135 8.99927 18C8.99927 17.8865 9.02342 17.7743 9.07012 17.6708C9.11682 17.5674 9.18499 17.4751 9.27012 17.4L12.0001 15" stroke="#353E50" stroke-width="1.5" stroke-linecap="round" stroke-linejoin="round"/>
<path d="M18.9999 6C19.5303 6 20.039 6.21071 20.4141 6.58579C20.7892 6.96086 20.9999 7.46957 20.9999 8V16C20.9999 16.5304 20.7892 17.0391 20.4141 17.4142C20.039 17.7893 19.5303 18 18.9999 18H9.6499" stroke="#353E50" stroke-width="1.5" stroke-linecap="round" stroke-linejoin="round"/>
<path d="M5 18C4.46957 18 3.96086 17.7893 3.58579 17.4142C3.21071 17.0391 3 16.5304 3 16V8C3 7.46957 3.21071 6.96086 3.58579 6.58579C3.96086 6.21071 4.46957 6 5 6H15" stroke="#353E50" stroke-width="1.5" stroke-linecap="round" stroke-linejoin="round"/>
</svg>
