<svg width="24" height="24" viewBox="0 0 24 24" fill="none" xmlns="http://www.w3.org/2000/svg">
<path d="M8 21V18.1023C8 17.4161 8.35182 16.7778 8.93201 16.4114L16.102 11.883C16.9723 11.3333 17.5 10.3758 17.5 9.34649V3.5" stroke="#353E50" stroke-width="1.5" stroke-linecap="round"/>
<path d="M16 21V18.1023C16 17.4161 15.6482 16.7778 15.068 16.4114L14.5 16.0526M6.5 3.5V9.34649C6.5 10.3758 7.02773 11.3333 7.89802 11.883L9 12.5789" stroke="#353E50" stroke-width="1.5" stroke-linecap="round" stroke-linejoin="round"/>
<path d="M2.45171 5.98826C2.16908 6.29107 2.18545 6.76567 2.48826 7.04829C2.79107 7.33092 3.26567 7.31455 3.54829 7.01174L2.45171 5.98826ZM9.45171 7.01174C9.73433 7.31455 10.2089 7.33092 10.5117 7.04829C10.8146 6.76567 10.8309 6.29107 10.5483 5.98826L9.45171 7.01174ZM6.86553 3.14164L6.31724 3.65338L6.86553 3.14164ZM3.54829 7.01174L6.68276 3.65337L5.58618 2.6299L2.45171 5.98826L3.54829 7.01174ZM6.31724 3.65338L9.45171 7.01174L10.5483 5.98826L7.41382 2.6299L6.31724 3.65338ZM6.68276 3.65337C6.58393 3.75927 6.41607 3.75927 6.31724 3.65338L7.41382 2.6299C6.91965 2.10043 6.08035 2.10043 5.58618 2.6299L6.68276 3.65337Z" fill="#353E50"/>
<path d="M13.4517 5.98826C13.1691 6.29107 13.1854 6.76567 13.4883 7.04829C13.7911 7.33092 14.2657 7.31455 14.5483 7.01174L13.4517 5.98826ZM20.4517 7.01174C20.7343 7.31455 21.2089 7.33092 21.5117 7.04829C21.8146 6.76567 21.8309 6.29107 21.5483 5.98826L20.4517 7.01174ZM17.8655 3.14164L17.3172 3.65338L17.8655 3.14164ZM14.5483 7.01174L17.6828 3.65337L16.5862 2.6299L13.4517 5.98826L14.5483 7.01174ZM17.3172 3.65338L20.4517 7.01174L21.5483 5.98826L18.4138 2.6299L17.3172 3.65338ZM17.6828 3.65337C17.5839 3.75927 17.4161 3.75927 17.3172 3.65338L18.4138 2.6299C17.9196 2.10043 17.0804 2.10043 16.5862 2.6299L17.6828 3.65337Z" fill="#353E50"/>
</svg>
