<svg width="24" height="24" viewBox="0 0 24 24" fill="none" xmlns="http://www.w3.org/2000/svg">
<path d="M3 17.5L6.15 20.84C6.19408 20.8892 6.24803 20.9285 6.30834 20.9555C6.36865 20.9824 6.43395 20.9963 6.5 20.9963C6.56605 20.9963 6.63135 20.9824 6.69166 20.9555C6.75197 20.9285 6.80592 20.8892 6.85 20.84L10 17.5" stroke="#353E50" stroke-width="1.5" stroke-linecap="round" stroke-linejoin="round"/>
<path d="M16 3V5.89766C16 6.58389 15.6482 7.2222 15.068 7.58864L7.89802 12.117C7.02773 12.6667 6.5 13.6242 6.5 14.6535V20.5" stroke="#353E50" stroke-width="1.5" stroke-linecap="round"/>
<path d="M8 3V5.89766C8 6.58389 8.35182 7.2222 8.93201 7.58864L16.102 12.117C16.9723 12.6667 17.5 13.6242 17.5 14.6535V20.5" stroke="#353E50" stroke-width="1.5" stroke-linecap="round"/>
<path d="M21 17.5L17.85 20.84C17.8059 20.8892 17.752 20.9285 17.6917 20.9555C17.6314 20.9824 17.566 20.9963 17.5 20.9963C17.434 20.9963 17.3686 20.9824 17.3083 20.9555C17.248 20.9285 17.1941 20.8892 17.15 20.84L14 17.5" stroke="#353E50" stroke-width="1.5" stroke-linecap="round" stroke-linejoin="round"/>
</svg>
