<svg width="24" height="24" viewBox="0 0 24 24" fill="none" xmlns="http://www.w3.org/2000/svg">
<path d="M7 8C10 8 11 8 11 5.5C11 3 10 3 7 3C4 3 3 3 3 5.5C3 8 4 8 7 8Z" stroke="#353E50" stroke-width="1.5" stroke-linecap="round" stroke-linejoin="round" stroke-dasharray="0.1 0.1"/>
<path d="M7 21C10 21 11 21 11 18.5C11 16 10 16 7 16C4 16 3 16 3 18.5C3 21 4 21 7 21Z" stroke="#353E50" stroke-width="1.5" stroke-linecap="round" stroke-linejoin="round" stroke-dasharray="0.1 0.1"/>
<path d="M17.5 12V6.5" stroke="#353E50" stroke-width="1.5" stroke-linecap="round" stroke-linejoin="round"/>
<path d="M21 9.00003L17.86 5.66003C17.8141 5.61034 17.7584 5.57068 17.6965 5.54356C17.6345 5.51644 17.5676 5.50244 17.5 5.50244C17.4324 5.50244 17.3655 5.51644 17.3035 5.54356C17.2416 5.57068 17.1859 5.61034 17.14 5.66003L14 9.00003" stroke="#353E50" stroke-width="1.5" stroke-linecap="round" stroke-linejoin="round"/>
<path d="M17.5 18.5V11.5" stroke="#353E50" stroke-width="1.5" stroke-linecap="round" stroke-linejoin="round" stroke-dasharray="0.1 3"/>
</svg>
