<svg width="24" height="24" viewBox="0 0 24 24" fill="none" xmlns="http://www.w3.org/2000/svg">
<path d="M7 4V21" stroke="#353E50" stroke-width="1.5" stroke-linecap="round" stroke-linejoin="round"/>
<path d="M11 17L7.3 20.87C7.26089 20.9099 7.21422 20.9416 7.1627 20.9633C7.11119 20.9849 7.05588 20.9961 7 20.9961C6.94412 20.9961 6.88881 20.9849 6.8373 20.9633C6.78578 20.9416 6.73911 20.9099 6.7 20.87L3 17" stroke="#353E50" stroke-width="1.5" stroke-linecap="round" stroke-linejoin="round"/>
<path d="M17 20V3" stroke="#353E50" stroke-width="1.5" stroke-linecap="round" stroke-linejoin="round"/>
<path d="M13 6.99997L16.7 3.12997C16.7391 3.09006 16.7858 3.05835 16.8373 3.0367C16.8888 3.01506 16.9441 3.00391 17 3.00391C17.0559 3.00391 17.1112 3.01506 17.1627 3.0367C17.2142 3.05835 17.2609 3.09006 17.3 3.12997L21 6.99997" stroke="#353E50" stroke-width="1.5" stroke-linecap="round" stroke-linejoin="round"/>
</svg>
