<svg width="24" height="24" viewBox="0 0 24 24" fill="none" xmlns="http://www.w3.org/2000/svg">
<path d="M12 21V7" stroke="#353E50" stroke-width="1.5" stroke-linecap="round" stroke-linejoin="round"/>
<path d="M6 15L11.4025 20.7344C11.478 20.818 11.5701 20.8849 11.6731 20.9306C11.776 20.9763 11.8874 21 12 21C12.1126 21 12.224 20.9763 12.3269 20.9306C12.4299 20.8849 12.522 20.818 12.5975 20.7344L18 15" stroke="#353E50" stroke-width="1.5" stroke-linecap="round" stroke-linejoin="round"/>
<path d="M8.818 10.682C8.18867 10.0527 7.76009 9.25086 7.58646 8.37795C7.41284 7.50503 7.50195 6.60024 7.84255 5.77797C8.18315 4.95571 8.75992 4.25291 9.49994 3.75844C10.24 3.26398 11.11 3.00006 12 3.00006C12.89 3.00006 13.76 3.26398 14.5001 3.75844C15.2401 4.25291 15.8169 4.95571 16.1575 5.77797C16.4981 6.60024 16.5872 7.50503 16.4135 8.37795C16.2399 9.25086 15.8113 10.0527 15.182 10.682" stroke="#353E50" stroke-width="1.5" stroke-linecap="round" stroke-linejoin="round"/>
</svg>
