<svg width="24" height="24" viewBox="0 0 24 24" fill="none" xmlns="http://www.w3.org/2000/svg">
<path d="M20 7H3" stroke="#353E50" stroke-width="1.5" stroke-linecap="round" stroke-linejoin="round"/>
<path d="M6.99997 11L3.12997 7.3C3.09006 7.26089 3.05835 7.21422 3.0367 7.1627C3.01506 7.11119 3.00391 7.05588 3.00391 7C3.00391 6.94412 3.01506 6.88881 3.0367 6.8373C3.05835 6.78578 3.09006 6.73911 3.12997 6.7L6.99997 3" stroke="#353E50" stroke-width="1.5" stroke-linecap="round" stroke-linejoin="round"/>
<path d="M4 17H21" stroke="#353E50" stroke-width="1.5" stroke-linecap="round" stroke-linejoin="round"/>
<path d="M17 13L20.87 16.7C20.9099 16.7391 20.9416 16.7858 20.9633 16.8373C20.9849 16.8888 20.9961 16.9441 20.9961 17C20.9961 17.0559 20.9849 17.1112 20.9633 17.1627C20.9416 17.2142 20.9099 17.2609 20.87 17.3L17 21" stroke="#353E50" stroke-width="1.5" stroke-linecap="round" stroke-linejoin="round"/>
</svg>
