<svg width="24" height="24" viewBox="0 0 24 24" fill="none" xmlns="http://www.w3.org/2000/svg">
<path d="M12.0001 13L7.14649 8.3536C7.10005 8.30717 7.06321 8.25204 7.03807 8.19137C7.01294 8.1307 7 8.06567 7 8C7 7.93433 7.01294 7.8693 7.03807 7.80863C7.06321 7.74796 7.10005 7.69283 7.14649 7.6464L12.0001 3" stroke="#353E50" stroke-width="1.5" stroke-linecap="round" stroke-linejoin="round"/>
<path d="M7.29297 8H21.0001" stroke="#353E50" stroke-width="1.5" stroke-linecap="round" stroke-linejoin="round"/>
<path d="M3 21V3" stroke="#353E50" stroke-width="1.5" stroke-linecap="round" stroke-linejoin="round"/>
<path d="M21 21V15" stroke="#353E50" stroke-width="1.5" stroke-linecap="round" stroke-linejoin="round"/>
<path d="M7 18V20C7 20.5523 7.44772 21 8 21H16C16.5523 21 17 20.5523 17 20V18C17 17.4477 16.5523 17 16 17H8C7.44772 17 7 17.4477 7 18Z" stroke="#353E50" stroke-width="1.5" stroke-linecap="round" stroke-linejoin="round"/>
</svg>
