<svg width="24" height="24" viewBox="0 0 24 24" fill="none" xmlns="http://www.w3.org/2000/svg">
<path d="M7 20V3" stroke="#353E50" stroke-width="1.5" stroke-linecap="round" stroke-linejoin="round"/>
<path d="M3 6.99997L6.7 3.12997C6.73911 3.09006 6.78578 3.05835 6.8373 3.0367C6.88881 3.01506 6.94412 3.00391 7 3.00391C7.05588 3.00391 7.11119 3.01506 7.1627 3.0367C7.21422 3.05835 7.26089 3.09006 7.3 3.12997L11 6.99997" stroke="#353E50" stroke-width="1.5" stroke-linecap="round" stroke-linejoin="round"/>
<path d="M17 4V21" stroke="#353E50" stroke-width="1.5" stroke-linecap="round" stroke-linejoin="round"/>
<path d="M21 17L17.3 20.87C17.2609 20.9099 17.2142 20.9416 17.1627 20.9633C17.1112 20.9849 17.0559 20.9961 17 20.9961C16.9441 20.9961 16.8888 20.9849 16.8373 20.9633C16.7858 20.9416 16.7391 20.9099 16.7 20.87L13 17" stroke="#353E50" stroke-width="1.5" stroke-linecap="round" stroke-linejoin="round"/>
</svg>
