<svg width="24" height="24" viewBox="0 0 24 24" fill="none" xmlns="http://www.w3.org/2000/svg">
<path d="M5.80007 5.47639C7.0881 4.25222 8.70969 3.43673 10.4605 3.13271C12.2112 2.82868 14.0128 3.04974 15.6382 3.76801C17.2635 4.48628 18.6398 5.66962 19.5937 7.16888C20.5476 8.66813 21.0363 10.4162 20.9982 12.1928C20.9601 13.9693 20.397 15.6949 19.3798 17.1519C18.3626 18.6089 16.9369 19.7322 15.2823 20.3802C13.6277 21.0283 11.8183 21.1719 10.0821 20.7932C8.34597 20.4145 6.76079 19.5303 5.52637 18.2521" stroke="#353E50" stroke-width="1.5" stroke-linecap="round" stroke-linejoin="round" stroke-dasharray="0.1 0.1"/>
<path d="M11.4143 16L15.2562 12.3628C15.3061 12.3164 15.3459 12.2603 15.3731 12.1979C15.4003 12.1355 15.4143 12.0681 15.4143 12C15.4143 11.9319 15.4003 11.8645 15.3731 11.8021C15.3459 11.7397 15.3061 11.6836 15.2562 11.6372L11.4143 8" stroke="#353E50" stroke-width="1.5" stroke-linecap="round" stroke-linejoin="round"/>
<path d="M14.4749 12H3" stroke="#353E50" stroke-width="1.5" stroke-linecap="round" stroke-linejoin="round"/>
</svg>
