<svg width="24" height="24" viewBox="0 0 24 24" fill="none" xmlns="http://www.w3.org/2000/svg">
<path d="M8 12H20" stroke="#353E50" stroke-width="1.5" stroke-linecap="round" stroke-linejoin="round"/>
<path d="M16 16L19.8418 12.3631C19.8917 12.3167 19.9315 12.2605 19.9587 12.198C19.9859 12.1356 20 12.0681 20 12C20 11.9319 19.9859 11.8644 19.9587 11.802C19.9315 11.7395 19.8917 11.6833 19.8418 11.6369L16 8" stroke="#353E50" stroke-width="1.5" stroke-linecap="round" stroke-linejoin="round"/>
<path d="M11.9999 16V18.8948C12.0124 19.2249 11.9436 19.553 11.7994 19.8502C11.6552 20.1474 11.4402 20.4046 11.1733 20.5992C10.9063 20.7937 10.5956 20.9196 10.2685 20.9659C9.94146 21.0121 9.60804 20.9772 9.29763 20.8642L5.29763 19.2867C4.90921 19.1258 4.57794 18.8522 4.34661 18.5011C4.11528 18.15 3.99453 17.7377 3.99993 17.3173V6.68268C3.99453 6.26228 4.11531 5.84992 4.34665 5.49885C4.578 5.14779 4.90929 4.87415 5.29773 4.71328L9.29773 3.13578C9.60813 3.0228 9.94155 2.98788 10.2686 3.0341C10.5957 3.08031 10.9064 3.20624 11.1733 3.4008C11.4403 3.59535 11.6553 3.85257 11.7995 4.14978C11.9436 4.447 12.0124 4.7751 11.9999 5.10518V7.99998" stroke="#353E50" stroke-width="1.5" stroke-linecap="round" stroke-linejoin="round"/>
</svg>
