<svg width="24" height="24" viewBox="0 0 24 24" fill="none" xmlns="http://www.w3.org/2000/svg">
<path d="M14.75 21C14.75 21.4142 14.4142 21.75 14 21.75C13.5858 21.75 13.25 21.4142 13.25 21H14.75ZM5.75 13.2857C5.75 13.6999 5.41421 14.0357 5 14.0357C4.58579 14.0357 4.25 13.6999 4.25 13.2857H5.75ZM13.25 21V7.5H14.75V21H13.25ZM5.75 7.5V13.2857H4.25V7.5H5.75ZM9.5 3.75C7.42893 3.75 5.75 5.42893 5.75 7.5H4.25C4.25 4.6005 6.60051 2.25 9.5 2.25V3.75ZM13.25 7.5C13.25 5.42893 11.5711 3.75 9.5 3.75V2.25C12.3995 2.25 14.75 4.6005 14.75 7.5H13.25Z" fill="#353E50"/>
<path d="M19 16L14.6 20.73C14.5249 20.8151 14.4326 20.8833 14.3292 20.93C14.2257 20.9767 14.1135 21.0009 14 21.0009C13.8865 21.0009 13.7743 20.9767 13.6708 20.93C13.5674 20.8833 13.4751 20.8151 13.4 20.73L9 16" stroke="#353E50" stroke-width="1.5" stroke-linecap="round" stroke-linejoin="round"/>
</svg>
