<svg width="24" height="24" viewBox="0 0 24 24" fill="none" xmlns="http://www.w3.org/2000/svg">
<path d="M16 5L12.3 8.87C12.2609 8.90991 12.2142 8.94162 12.1627 8.96327C12.1112 8.98491 12.0559 8.99606 12 8.99606C11.9441 8.99606 11.8888 8.98491 11.8373 8.96327C11.7858 8.94162 11.7391 8.90991 11.7 8.87L8 5" stroke="#353E50" stroke-width="1.5" stroke-linecap="round" stroke-linejoin="round"/>
<path d="M12 9V2" stroke="#353E50" stroke-width="1.5" stroke-linecap="round" stroke-linejoin="round"/>
<path d="M16 19L12.3 15.13C12.2609 15.0901 12.2142 15.0583 12.1627 15.0367C12.1112 15.0151 12.0559 15.0039 12 15.0039C11.9441 15.0039 11.8888 15.0151 11.8373 15.0367C11.7858 15.0583 11.7391 15.0901 11.7 15.13L8 19" stroke="#353E50" stroke-width="1.5" stroke-linecap="round" stroke-linejoin="round"/>
<path d="M12 15V22" stroke="#353E50" stroke-width="1.5" stroke-linecap="round" stroke-linejoin="round"/>
<path d="M21 12H3" stroke="#353E50" stroke-width="1.5" stroke-linecap="round" stroke-linejoin="round"/>
</svg>
