<svg width="24" height="24" viewBox="0 0 24 24" fill="none" xmlns="http://www.w3.org/2000/svg">
<path d="M5.99997 16L2.12997 12.3C2.09006 12.2609 2.05835 12.2142 2.0367 12.1627C2.01506 12.1112 2.00391 12.0559 2.00391 12C2.00391 11.9441 2.01506 11.8888 2.0367 11.8373C2.05835 11.7858 2.09006 11.7391 2.12997 11.7L5.99997 8" stroke="#353E50" stroke-width="1.5" stroke-linecap="round" stroke-linejoin="round"/>
<path d="M2 12H9" stroke="#353E50" stroke-width="1.5" stroke-linecap="round" stroke-linejoin="round"/>
<path d="M18 16L21.87 12.3C21.9099 12.2609 21.9416 12.2142 21.9633 12.1627C21.9849 12.1112 21.9961 12.0559 21.9961 12C21.9961 11.9441 21.9849 11.8888 21.9633 11.8373C21.9416 11.7858 21.9099 11.7391 21.87 11.7L18 8" stroke="#353E50" stroke-width="1.5" stroke-linecap="round" stroke-linejoin="round"/>
<path d="M22 12H15" stroke="#353E50" stroke-width="1.5" stroke-linecap="round" stroke-linejoin="round"/>
<path d="M12 3V21" stroke="#353E50" stroke-width="1.5" stroke-linecap="round" stroke-linejoin="round"/>
</svg>
