<svg width="24" height="24" viewBox="0 0 24 24" fill="none" xmlns="http://www.w3.org/2000/svg">
<path d="M16 10L18.73 12.4C18.8151 12.4751 18.8833 12.5674 18.93 12.6708C18.9767 12.7743 19.0009 12.8865 19.0009 13C19.0009 13.1135 18.9767 13.2257 18.93 13.3292C18.8833 13.4326 18.8151 13.5249 18.73 13.6L16 16" stroke="#353E50" stroke-width="1.5" stroke-linecap="round" stroke-linejoin="round"/>
<path d="M8.99991 20V19.82C8.9874 18.9125 9.15861 18.0117 9.50322 17.1721C9.84784 16.3324 10.3587 15.5711 11.0052 14.934C11.6517 14.2969 12.4203 13.7971 13.2649 13.4647C14.1095 13.1324 15.0126 12.9743 15.9199 13H18.9999" stroke="#353E50" stroke-width="1.5" stroke-linecap="round" stroke-linejoin="round"/>
<path d="M5 7L8.4 3.27C8.47507 3.18487 8.5674 3.11669 8.67085 3.07C8.7743 3.0233 8.8865 2.99915 9 2.99915C9.1135 2.99915 9.2257 3.0233 9.32915 3.07C9.4326 3.11669 9.52493 3.18487 9.6 3.27L13 7" stroke="#353E50" stroke-width="1.5" stroke-linecap="round" stroke-linejoin="round"/>
<path d="M9 21V3" stroke="#353E50" stroke-width="1.5" stroke-linecap="round" stroke-linejoin="round"/>
</svg>
