<svg width="24" height="24" viewBox="0 0 24 24" fill="none" xmlns="http://www.w3.org/2000/svg">
<path d="M16 21V18.1023C16 17.4161 15.6482 16.7778 15.068 16.4114L7.89802 11.883C7.02773 11.3333 6.5 10.3758 6.5 9.34649V3.5" stroke="#353E50" stroke-width="1.5" stroke-linecap="round"/>
<path d="M3 6.49997L6.15 3.15997C6.19408 3.11079 6.24803 3.07145 6.30834 3.04452C6.36865 3.01758 6.43395 3.00366 6.5 3.00366C6.56605 3.00366 6.63135 3.01758 6.69166 3.04452C6.75197 3.07145 6.80592 3.11079 6.85 3.15997L10 6.49997" stroke="#353E50" stroke-width="1.5" stroke-linecap="round" stroke-linejoin="round"/>
<path d="M8 21V18.1023C8 17.4161 8.35182 16.7778 8.93201 16.4114L16.102 11.883C16.9723 11.3333 17.5 10.3758 17.5 9.34649V3.5" stroke="#353E50" stroke-width="1.5" stroke-linecap="round"/>
<path d="M21 6.49997L17.85 3.15997C17.8059 3.11079 17.752 3.07145 17.6917 3.04452C17.6314 3.01758 17.566 3.00366 17.5 3.00366C17.434 3.00366 17.3686 3.01758 17.3083 3.04452C17.248 3.07145 17.1941 3.11079 17.15 3.15997L14 6.49997" stroke="#353E50" stroke-width="1.5" stroke-linecap="round" stroke-linejoin="round"/>
</svg>
