<svg width="24" height="24" viewBox="0 0 24 24" fill="none" xmlns="http://www.w3.org/2000/svg">
<path d="M3 15H21" stroke="#353E50" stroke-width="1.5" stroke-linecap="round" stroke-linejoin="round"/>
<path d="M9 21V3" stroke="#353E50" stroke-width="1.5" stroke-linecap="round" stroke-linejoin="round"/>
<path d="M17 11L20.8419 14.6372C20.8918 14.6836 20.9316 14.7397 20.9588 14.8021C20.986 14.8645 21 14.9319 21 15C21 15.0681 20.986 15.1355 20.9588 15.1979C20.9316 15.2603 20.8918 15.3164 20.8419 15.3628L17 19" stroke="#353E50" stroke-width="1.5" stroke-linecap="round" stroke-linejoin="round"/>
<path d="M5 7.00001L8.6372 3.15811C8.68356 3.10823 8.7397 3.06845 8.80212 3.04124C8.86454 3.01404 8.93191 3 9 3C9.06809 3 9.13546 3.01404 9.19788 3.04124C9.2603 3.06845 9.31644 3.10823 9.3628 3.15811L13 7.00001" stroke="#353E50" stroke-width="1.5" stroke-linecap="round" stroke-linejoin="round"/>
</svg>
