<svg width="24" height="24" viewBox="0 0 24 24" fill="none" xmlns="http://www.w3.org/2000/svg">
<path d="M21 16H18.1023C17.4161 16 16.7778 15.6482 16.4114 15.068L11.883 7.89802C11.3333 7.02773 10.3758 6.5 9.34649 6.5H3.5" stroke="#353E50" stroke-width="1.5" stroke-linecap="round"/>
<path d="M6.49997 3L3.15997 6.15C3.11079 6.19408 3.07145 6.24803 3.04452 6.30834C3.01758 6.36865 3.00366 6.43395 3.00366 6.5C3.00366 6.56605 3.01758 6.63135 3.04452 6.69166C3.07145 6.75197 3.11079 6.80592 3.15997 6.85L6.49997 10" stroke="#353E50" stroke-width="1.5" stroke-linecap="round" stroke-linejoin="round"/>
<path d="M21 8H18.1023C17.4161 8 16.7778 8.35182 16.4114 8.93201L11.883 16.102C11.3333 16.9723 10.3758 17.5 9.34649 17.5H3.5" stroke="#353E50" stroke-width="1.5" stroke-linecap="round"/>
<path d="M6.49997 21L3.15997 17.85C3.11079 17.8059 3.07145 17.752 3.04452 17.6917C3.01758 17.6314 3.00366 17.566 3.00366 17.5C3.00366 17.434 3.01758 17.3686 3.04452 17.3083C3.07145 17.248 3.11079 17.1941 3.15997 17.15L6.49997 14" stroke="#353E50" stroke-width="1.5" stroke-linecap="round" stroke-linejoin="round"/>
</svg>
