<svg width="24" height="24" viewBox="0 0 24 24" fill="none" xmlns="http://www.w3.org/2000/svg">
<path d="M11.22 17.75L8.63997 18.21C8.59199 18.2184 8.54615 18.2363 8.50509 18.2625C8.46402 18.2887 8.42853 18.3227 8.40066 18.3627C8.37279 18.4026 8.35308 18.4477 8.34266 18.4953C8.33225 18.5429 8.33133 18.5921 8.33997 18.64L8.78997 21.23" stroke="#353E50" stroke-width="1.5" stroke-linecap="round" stroke-linejoin="round"/>
<path d="M12.79 14.23L15.38 13.77C15.428 13.7616 15.4739 13.7437 15.5149 13.7175C15.556 13.6913 15.5915 13.6573 15.6193 13.6173C15.6472 13.5774 15.6669 13.5323 15.6773 13.4847C15.6878 13.4371 15.6887 13.3879 15.68 13.34L15.22 10.75" stroke="#353E50" stroke-width="1.5" stroke-linecap="round" stroke-linejoin="round"/>
<path d="M8 15.45C8.10657 14.644 8.45624 13.8896 9.0024 13.2873C9.54856 12.685 10.2653 12.2635 11.0571 12.0788C11.8489 11.8942 12.6781 11.9552 13.4344 12.2538C14.1906 12.5523 14.8379 13.0742 15.29 13.75" stroke="#353E50" stroke-width="1.5" stroke-linecap="round" stroke-linejoin="round"/>
<path d="M16 16.58C15.8875 17.3849 15.5326 18.1364 14.9824 18.7346C14.4323 19.3327 13.713 19.7491 12.9203 19.9283C12.1276 20.1074 11.2991 20.0409 10.5452 19.7375C9.79125 19.4341 9.14761 18.9083 8.69995 18.23" stroke="#353E50" stroke-width="1.5" stroke-linecap="round" stroke-linejoin="round"/>
<path d="M4.99736 16C4.4044 15.9995 3.8249 15.8232 3.33203 15.4936C2.83917 15.1639 2.45506 14.6955 2.22821 14.1477C2.00137 13.5998 1.94196 12.997 2.0575 12.4154C2.17304 11.8339 2.45834 11.2995 2.87736 10.88C3.18992 10.5588 3.57356 10.3156 3.99736 10.17C3.99736 9.99999 3.99736 9.71999 3.99736 9.49999C3.99635 8.17992 4.39729 6.89083 5.14684 5.8042C5.8964 4.71758 6.95904 3.88493 8.1934 3.41702C9.42776 2.94912 10.7753 2.86813 12.0568 3.18485C13.3384 3.50156 14.4931 4.20095 15.3674 5.18999C15.7313 5.06623 16.1129 5.00207 16.4974 4.99999C17.4256 4.99999 18.3159 5.36874 18.9722 6.02512C19.6286 6.68149 19.9974 7.57173 19.9974 8.49999C20.0011 9.04334 19.8705 9.57921 19.6174 10.06C20.3482 10.2083 20.9977 10.6235 21.439 11.2246C21.8804 11.8258 22.082 12.5698 22.0046 13.3115C21.9272 14.0533 21.5763 14.7396 21.0203 15.2366C20.4643 15.7337 19.7431 16.0058 18.9974 16" stroke="#353E50" stroke-width="1.5" stroke-linecap="round" stroke-linejoin="round"/>
</svg>
