<svg width="24" height="24" viewBox="0 0 24 24" fill="none" xmlns="http://www.w3.org/2000/svg">
<path d="M4.5 4.5L16 16" stroke="#353E50" stroke-width="1.5" stroke-linecap="round" stroke-linejoin="round"/>
<path d="M4 13V5C4 4.73478 4.10536 4.48043 4.29289 4.29289C4.48043 4.10536 4.73478 4 5 4H13" stroke="#353E50" stroke-width="1.5" stroke-linecap="round" stroke-linejoin="round"/>
<path d="M11 15.5C11 16.39 11.2639 17.26 11.7584 18.0001C12.2529 18.7401 12.9557 19.3169 13.7779 19.6575C14.6002 19.9981 15.505 20.0872 16.3779 19.9135C17.2508 19.7399 18.0526 19.3113 18.682 18.682C19.3113 18.0526 19.7399 17.2508 19.9135 16.3779C20.0872 15.505 19.9981 14.6002 19.6575 13.7779C19.3169 12.9557 18.7401 12.2529 18.0001 11.7584C17.26 11.2639 16.39 11 15.5 11" stroke="#353E50" stroke-width="1.5" stroke-linecap="round" stroke-linejoin="round"/>
</svg>
