<svg width="24" height="24" viewBox="0 0 24 24" fill="none" xmlns="http://www.w3.org/2000/svg">
<path d="M12 21V12" stroke="#353E50" stroke-width="1.5" stroke-linecap="round" stroke-linejoin="round"/>
<path d="M18 3L21.73 6.4C21.8151 6.47507 21.8833 6.5674 21.93 6.67085C21.9767 6.7743 22.0009 6.8865 22.0009 7C22.0009 7.1135 21.9767 7.2257 21.93 7.32915C21.8833 7.4326 21.8151 7.52493 21.73 7.6L18 11" stroke="#353E50" stroke-width="1.5" stroke-linecap="round" stroke-linejoin="round"/>
<path d="M11.9999 14V13.82C11.9874 12.9125 12.1586 12.0117 12.5032 11.1721C12.8478 10.3324 13.3587 9.57109 14.0052 8.93398C14.6517 8.29686 15.4203 7.7971 16.2649 7.46474C17.1095 7.13238 18.0126 6.9743 18.9199 7.00002H21.9999" stroke="#353E50" stroke-width="1.5" stroke-linecap="round" stroke-linejoin="round"/>
<path d="M6.00012 3L2.27012 6.4C2.18499 6.47507 2.11682 6.5674 2.07012 6.67085C2.02342 6.7743 1.99927 6.8865 1.99927 7C1.99927 7.1135 2.02342 7.2257 2.07012 7.32915C2.11682 7.4326 2.18499 7.52493 2.27012 7.6L6.00012 11" stroke="#353E50" stroke-width="1.5" stroke-linecap="round" stroke-linejoin="round"/>
<path d="M12 14V13.82C12.0125 12.9125 11.8413 12.0117 11.4967 11.1721C11.1521 10.3324 10.6412 9.57109 9.99471 8.93398C9.34825 8.29686 8.5796 7.7971 7.73499 7.46474C6.89039 7.13238 5.98728 6.9743 5.08 7.00002H2" stroke="#353E50" stroke-width="1.5" stroke-linecap="round" stroke-linejoin="round"/>
</svg>
