<svg width="24" height="24" viewBox="0 0 24 24" fill="none" xmlns="http://www.w3.org/2000/svg">
<path d="M13 19H7.5C6.90868 19.0013 6.32293 18.8858 5.77637 18.6602C5.2298 18.4345 4.73321 18.1031 4.31508 17.6849C3.89695 17.2668 3.56554 16.7702 3.33986 16.2236C3.11418 15.6771 2.99868 15.0913 3 14.5C2.99868 13.9087 3.11418 13.3229 3.33986 12.7764C3.56554 12.2298 3.89695 11.7332 4.31508 11.3151C4.73321 10.897 5.2298 10.5655 5.77637 10.3399C6.32293 10.1142 6.90868 9.99869 7.5 10H21" stroke="#353E50" stroke-width="1.5" stroke-linecap="round" stroke-linejoin="round"/>
<path d="M16 5L20.73 9.4C20.8151 9.47507 20.8833 9.5674 20.93 9.67085C20.9767 9.7743 21.0009 9.8865 21.0009 10C21.0009 10.1135 20.9767 10.2257 20.93 10.3292C20.8833 10.4326 20.8151 10.5249 20.73 10.6L16 15" stroke="#353E50" stroke-width="1.5" stroke-linecap="round" stroke-linejoin="round"/>
</svg>
