<svg width="24" height="24" viewBox="0 0 24 24" fill="none" xmlns="http://www.w3.org/2000/svg">
<path d="M3 16H5.89766C6.58389 16 7.2222 15.6482 7.58864 15.068L12.117 7.89802C12.6667 7.02773 13.6242 6.5 14.6535 6.5H20.5" stroke="#353E50" stroke-width="1.5" stroke-linecap="round"/>
<path d="M17.5 3L20.84 6.15C20.8892 6.19408 20.9285 6.24803 20.9555 6.30834C20.9824 6.36865 20.9963 6.43395 20.9963 6.5C20.9963 6.56605 20.9824 6.63135 20.9555 6.69166C20.9285 6.75197 20.8892 6.80592 20.84 6.85L17.5 10" stroke="#353E50" stroke-width="1.5" stroke-linecap="round" stroke-linejoin="round"/>
<path d="M3 8H5.89766C6.58389 8 7.2222 8.35182 7.58864 8.93201L12.117 16.102C12.6667 16.9723 13.6242 17.5 14.6535 17.5H20.5" stroke="#353E50" stroke-width="1.5" stroke-linecap="round"/>
<path d="M17.5 21L20.84 17.85C20.8892 17.8059 20.9285 17.752 20.9555 17.6917C20.9824 17.6314 20.9963 17.566 20.9963 17.5C20.9963 17.434 20.9824 17.3686 20.9555 17.3083C20.9285 17.248 20.8892 17.1941 20.84 17.15L17.5 14" stroke="#353E50" stroke-width="1.5" stroke-linecap="round" stroke-linejoin="round"/>
</svg>
