<svg width="24" height="24" viewBox="0 0 24 24" fill="none" xmlns="http://www.w3.org/2000/svg">
<path d="M21 17.5L17.85 20.84C17.8059 20.8892 17.752 20.9285 17.6917 20.9555C17.6314 20.9824 17.566 20.9963 17.5 20.9963C17.434 20.9963 17.3686 20.9824 17.3083 20.9555C17.248 20.9285 17.1941 20.8892 17.15 20.84L14 17.5" stroke="#353E50" stroke-width="1.5" stroke-linecap="round" stroke-linejoin="round"/>
<path d="M3 6.49997L6.15 3.15997C6.19408 3.11079 6.24803 3.07145 6.30834 3.04452C6.36865 3.01758 6.43395 3.00366 6.5 3.00366C6.56605 3.00366 6.63135 3.01758 6.69166 3.04452C6.75197 3.07145 6.80592 3.11079 6.85 3.15997L10 6.49997" stroke="#353E50" stroke-width="1.5" stroke-linecap="round" stroke-linejoin="round"/>
<path d="M6.5 3.75V13.75C6.48044 14.5089 6.75619 15.2457 7.26916 15.8053C7.78213 16.365 8.49227 16.7036 9.25 16.75C10.0095 16.7086 10.7226 16.3714 11.2366 15.8107C11.7506 15.25 12.0247 14.5103 12 13.75V10.75C11.9804 9.99111 12.2562 9.25426 12.7692 8.69465C13.2821 8.13505 13.9923 7.79638 14.75 7.75C15.5095 7.79142 16.2226 8.1286 16.7366 8.68932C17.2506 9.25005 17.5247 9.98974 17.5 10.75V20.75" stroke="#353E50" stroke-width="1.5" stroke-linecap="round" stroke-linejoin="round"/>
</svg>
