<svg width="24" height="24" viewBox="0 0 24 24" fill="none" xmlns="http://www.w3.org/2000/svg">
<path d="M3 17.5L6.15 20.84C6.19408 20.8892 6.24803 20.9285 6.30834 20.9555C6.36865 20.9824 6.43395 20.9963 6.5 20.9963C6.56605 20.9963 6.63135 20.9824 6.69166 20.9555C6.75197 20.9285 6.80592 20.8892 6.85 20.84L10 17.5" stroke="#353E50" stroke-width="1.5" stroke-linecap="round" stroke-linejoin="round"/>
<path d="M6.5 20.25V6.25C6.5 5.45435 6.81607 4.69129 7.37868 4.12868C7.94129 3.56607 8.70435 3.25 9.5 3.25C10.2956 3.25 11.0587 3.56607 11.6213 4.12868C12.1839 4.69129 12.5 5.45435 12.5 6.25V13.25C12.5 14.0456 12.8161 14.8087 13.3787 15.3713C13.9413 15.9339 14.7044 16.25 15.5 16.25C16.2956 16.25 17.0587 15.9339 17.6213 15.3713C18.1839 14.8087 18.5 14.0456 18.5 13.25V8.25" stroke="#353E50" stroke-width="1.5" stroke-linecap="round" stroke-linejoin="round"/>
<path d="M18.5 8C19.8807 8 21 6.88071 21 5.5C21 4.11929 19.8807 3 18.5 3C17.1193 3 16 4.11929 16 5.5C16 6.88071 17.1193 8 18.5 8Z" stroke="#353E50" stroke-width="1.5" stroke-linecap="round" stroke-linejoin="round"/>
</svg>
