<svg width="24" height="24" viewBox="0 0 24 24" fill="none" xmlns="http://www.w3.org/2000/svg">
<path d="M21 17.5L17.85 20.84C17.8059 20.8892 17.752 20.9285 17.6917 20.9555C17.6314 20.9824 17.566 20.9963 17.5 20.9963C17.434 20.9963 17.3686 20.9824 17.3083 20.9555C17.248 20.9285 17.1941 20.8892 17.15 20.84L14 17.5" stroke="#353E50" stroke-width="1.5" stroke-linecap="round" stroke-linejoin="round"/>
<path d="M17.5 20.25V6.25C17.5 5.45435 17.1839 4.69129 16.6213 4.12868C16.0587 3.56607 15.2956 3.25 14.5 3.25C13.7044 3.25 12.9413 3.56607 12.3787 4.12868C11.8161 4.69129 11.5 5.45435 11.5 6.25V13.25C11.5 14.0456 11.1839 14.8087 10.6213 15.3713C10.0587 15.9339 9.29565 16.25 8.5 16.25C7.70435 16.25 6.94129 15.9339 6.37868 15.3713C5.81607 14.8087 5.5 14.0456 5.5 13.25V8.25" stroke="#353E50" stroke-width="1.5" stroke-linecap="round" stroke-linejoin="round"/>
<path d="M5.5 8C6.88071 8 8 6.88071 8 5.5C8 4.11929 6.88071 3 5.5 3C4.11929 3 3 4.11929 3 5.5C3 6.88071 4.11929 8 5.5 8Z" stroke="#353E50" stroke-width="1.5" stroke-linecap="round" stroke-linejoin="round"/>
</svg>
