<svg width="24" height="24" viewBox="0 0 24 24" fill="none" xmlns="http://www.w3.org/2000/svg">
<path d="M21.125 7.875L18.2273 7.875C17.5411 7.875 16.9028 8.22682 16.5364 8.80701L12.008 15.977C11.4583 16.8473 10.5008 17.375 9.47149 17.375L3.625 17.375" stroke="#353E50" stroke-width="1.5" stroke-linecap="round"/>
<path d="M21.125 15.875L18.2273 15.875C17.5411 15.875 16.9028 15.5232 16.5364 14.943L16.1776 14.375M3.625 6.375L9.47149 6.375C10.5008 6.375 11.4583 6.90273 12.008 7.77302L12.7039 8.875" stroke="#353E50" stroke-width="1.5" stroke-linecap="round" stroke-linejoin="round"/>
<path d="M6.11326 2.32671C6.41607 2.04408 6.89067 2.06045 7.17329 2.36326C7.45592 2.66607 7.43955 3.14067 7.13674 3.42329L6.11326 2.32671ZM7.13674 9.32671C7.43955 9.60933 7.45592 10.0839 7.17329 10.3867C6.89067 10.6896 6.41607 10.7059 6.11326 10.4233L7.13674 9.32671ZM3.26664 6.74053L3.77838 6.19224L3.26664 6.74053ZM7.13674 3.42329L3.77837 6.55776L2.7549 5.46118L6.11326 2.32671L7.13674 3.42329ZM3.77838 6.19224L7.13674 9.32671L6.11326 10.4233L2.7549 7.28882L3.77838 6.19224ZM3.77837 6.55776C3.88427 6.45893 3.88427 6.29107 3.77838 6.19224L2.7549 7.28882C2.22543 6.79465 2.22543 5.95535 2.7549 5.46118L3.77837 6.55776Z" fill="#353E50"/>
<path d="M6.11326 13.3267C6.41607 13.0441 6.89067 13.0604 7.17329 13.3633C7.45592 13.6661 7.43955 14.1407 7.13674 14.4233L6.11326 13.3267ZM7.13674 20.3267C7.43955 20.6093 7.45592 21.0839 7.17329 21.3867C6.89067 21.6896 6.41607 21.7059 6.11326 21.4233L7.13674 20.3267ZM3.26664 17.7405L3.77838 17.1922L3.26664 17.7405ZM7.13674 14.4233L3.77837 17.5578L2.7549 16.4612L6.11326 13.3267L7.13674 14.4233ZM3.77838 17.1922L7.13674 20.3267L6.11326 21.4233L2.7549 18.2888L3.77838 17.1922ZM3.77837 17.5578C3.88427 17.4589 3.88427 17.2911 3.77838 17.1922L2.7549 18.2888C2.22543 17.7946 2.22543 16.9554 2.7549 16.4612L3.77837 17.5578Z" fill="#353E50"/>
</svg>
