<svg width="24" height="24" viewBox="0 0 24 24" fill="none" xmlns="http://www.w3.org/2000/svg">
<path d="M4 7H19" stroke="#353E50" stroke-width="1.5" stroke-linecap="round" stroke-linejoin="round"/>
<path d="M16 3L19.8548 6.6667C19.9006 6.70929 19.9372 6.76087 19.9621 6.81822C19.9871 6.87557 20 6.93745 20 7C20 7.06255 19.9871 7.12443 19.9621 7.18178C19.9372 7.23913 19.9006 7.29071 19.8548 7.3333L16 11" stroke="#353E50" stroke-width="1.5" stroke-linecap="round" stroke-linejoin="round"/>
<path d="M20 17H5" stroke="#353E50" stroke-width="1.5" stroke-linecap="round" stroke-linejoin="round"/>
<path d="M8.00002 21L4.14522 17.3333C4.09941 17.2907 4.06287 17.2391 4.03788 17.1818C4.0129 17.1244 4 17.0626 4 17C4 16.9374 4.0129 16.8756 4.03788 16.8182C4.06287 16.7609 4.09941 16.7093 4.14522 16.6667L8.00002 13" stroke="#353E50" stroke-width="1.5" stroke-linecap="round" stroke-linejoin="round"/>
</svg>
