<svg width="24" height="24" viewBox="0 0 24 24" fill="none" xmlns="http://www.w3.org/2000/svg">
<path d="M20.5 17.5H13.8271C12.9819 17.5 12.1759 17.1434 11.6073 16.518L8.09514 12.6547C7.7161 12.2377 7.17875 12 6.61526 12H3" stroke="#353E50" stroke-width="1.5" stroke-linecap="round" stroke-linejoin="round"/>
<path d="M17.5 3L20.84 6.15C20.8892 6.19408 20.9285 6.24803 20.9555 6.30834C20.9824 6.36865 20.9963 6.43395 20.9963 6.5C20.9963 6.56605 20.9824 6.63135 20.9555 6.69166C20.9285 6.75197 20.8892 6.80592 20.84 6.85L17.5 10" stroke="#353E50" stroke-width="1.5" stroke-linecap="round" stroke-linejoin="round"/>
<path d="M17.5 21L20.84 17.85C20.8892 17.8059 20.9285 17.752 20.9555 17.6917C20.9824 17.6314 20.9963 17.566 20.9963 17.5C20.9963 17.434 20.9824 17.3686 20.9555 17.3083C20.9285 17.248 20.8892 17.1941 20.84 17.15L17.5 14" stroke="#353E50" stroke-width="1.5" stroke-linecap="round" stroke-linejoin="round"/>
<path d="M20.5 6.5H13.9051C13.0148 6.5 12.1704 6.89547 11.6005 7.57945L10 9.5" stroke="#353E50" stroke-width="1.5" stroke-linecap="round" stroke-linejoin="round"/>
</svg>
