<svg width="24" height="24" viewBox="0 0 24 24" fill="none" xmlns="http://www.w3.org/2000/svg">
<path d="M19.5 4.5L8 16" stroke="#353E50" stroke-width="1.5" stroke-linecap="round" stroke-linejoin="round"/>
<path d="M11 4H19C19.2652 4 19.5196 4.10536 19.7071 4.29289C19.8946 4.48043 20 4.73478 20 5V13" stroke="#353E50" stroke-width="1.5" stroke-linecap="round" stroke-linejoin="round"/>
<path d="M8.5 11C7.60999 11 6.73996 11.2639 5.99994 11.7584C5.25991 12.2529 4.68314 12.9557 4.34254 13.7779C4.00195 14.6002 3.91283 15.505 4.08647 16.3779C4.2601 17.2508 4.68868 18.0526 5.31802 18.682C5.94736 19.3113 6.74918 19.7399 7.6221 19.9135C8.49501 20.0872 9.39981 19.9981 10.2221 19.6575C11.0443 19.3169 11.7471 18.7401 12.2416 18.0001C12.7361 17.26 13 16.39 13 15.5" stroke="#353E50" stroke-width="1.5" stroke-linecap="round" stroke-linejoin="round"/>
</svg>
