<svg width="24" height="24" viewBox="0 0 24 24" fill="none" xmlns="http://www.w3.org/2000/svg">
<path d="M17 20V5" stroke="#353E50" stroke-width="1.5" stroke-linecap="round" stroke-linejoin="round"/>
<path d="M21 8.00002L17.3333 4.14522C17.2907 4.09941 17.2391 4.06287 17.1818 4.03788C17.1244 4.0129 17.0626 4 17 4C16.9374 4 16.8756 4.0129 16.8182 4.03788C16.7609 4.06287 16.7093 4.09941 16.6667 4.14522L13 8.00002" stroke="#353E50" stroke-width="1.5" stroke-linecap="round" stroke-linejoin="round"/>
<path d="M7 4V19" stroke="#353E50" stroke-width="1.5" stroke-linecap="round" stroke-linejoin="round"/>
<path d="M3 16L6.6667 19.8548C6.70929 19.9006 6.76087 19.9372 6.81822 19.9621C6.87557 19.9871 6.93745 20 7 20C7.06255 20 7.12443 19.9871 7.18178 19.9621C7.23913 19.9372 7.29071 19.9006 7.3333 19.8548L11 16" stroke="#353E50" stroke-width="1.5" stroke-linecap="round" stroke-linejoin="round"/>
</svg>
