<svg width="24" height="24" viewBox="0 0 24 24" fill="none" xmlns="http://www.w3.org/2000/svg">
<path d="M4 12L11.4 4.27C11.4751 4.18487 11.5674 4.11669 11.6708 4.07C11.7743 4.0233 11.8865 3.99915 12 3.99915C12.1135 3.99915 12.2257 4.0233 12.3292 4.07C12.4326 4.11669 12.5249 4.18487 12.6 4.27L20 12" stroke="#353E50" stroke-width="1.5" stroke-linecap="round" stroke-linejoin="round"/>
<path d="M4 20L11.4 12.27C11.4751 12.1849 11.5674 12.1167 11.6708 12.07C11.7743 12.0233 11.8865 11.9991 12 11.9991C12.1135 11.9991 12.2257 12.0233 12.3292 12.07C12.4326 12.1167 12.5249 12.1849 12.6 12.27L20 20" stroke="#353E50" stroke-width="1.5" stroke-linecap="round" stroke-linejoin="round"/>
</svg>
