<svg width="24" height="24" viewBox="0 0 24 24" fill="none" xmlns="http://www.w3.org/2000/svg">
<path d="M3 12H17" stroke="#353E50" stroke-width="1.5" stroke-linecap="round" stroke-linejoin="round"/>
<path d="M8.99999 18L3.26559 12.5975C3.18198 12.522 3.11514 12.4299 3.06939 12.3269C3.02364 12.224 3 12.1126 3 12C3 11.8874 3.02364 11.776 3.06939 11.6731C3.11514 11.5701 3.18198 11.478 3.26559 11.4025L8.99999 6" stroke="#353E50" stroke-width="1.5" stroke-linecap="round" stroke-linejoin="round"/>
<path d="M13.3181 15.182C13.9475 15.8113 14.7493 16.2399 15.6222 16.4135C16.4951 16.5872 17.3999 16.4981 18.2222 16.1575C19.0444 15.8169 19.7472 15.2401 20.2417 14.5001C20.7362 13.76 21.0001 12.89 21.0001 12C21.0001 11.11 20.7362 10.24 20.2417 9.49994C19.7472 8.75992 19.0444 8.18315 18.2222 7.84255C17.3999 7.50195 16.4951 7.41284 15.6222 7.58646C14.7493 7.76009 13.9475 8.18867 13.3181 8.818" stroke="#353E50" stroke-width="1.5" stroke-linecap="round" stroke-linejoin="round"/>
</svg>
