<svg width="24" height="24" viewBox="0 0 24 24" fill="none" xmlns="http://www.w3.org/2000/svg">
<path d="M17.5 3V10.1729C17.5 11.0181 17.1434 11.8241 16.518 12.3927L12.6547 15.9049C12.2377 16.2839 12 16.8212 12 17.3847V21" stroke="#353E50" stroke-width="1.5" stroke-linecap="round" stroke-linejoin="round"/>
<path d="M3 6.49997L6.15 3.15997C6.19408 3.11079 6.24803 3.07145 6.30834 3.04452C6.36865 3.01758 6.43395 3.00366 6.5 3.00366C6.56605 3.00366 6.63135 3.01758 6.69166 3.04452C6.75197 3.07145 6.80592 3.11079 6.85 3.15997L10 6.49997" stroke="#353E50" stroke-width="1.5" stroke-linecap="round" stroke-linejoin="round"/>
<path d="M21 6.49997L17.85 3.15997C17.8059 3.11079 17.752 3.07145 17.6917 3.04452C17.6314 3.01758 17.566 3.00366 17.5 3.00366C17.434 3.00366 17.3686 3.01758 17.3083 3.04452C17.248 3.07145 17.1941 3.11079 17.15 3.15997L14 6.49997" stroke="#353E50" stroke-width="1.5" stroke-linecap="round" stroke-linejoin="round"/>
<path d="M6.5 3V10.0949C6.5 10.9852 6.89547 11.8296 7.57945 12.3995L9.5 14" stroke="#353E50" stroke-width="1.5" stroke-linecap="round" stroke-linejoin="round"/>
</svg>
