<svg width="24" height="24" viewBox="0 0 24 24" fill="none" xmlns="http://www.w3.org/2000/svg">
<path d="M3 7L8.19 12.33C8.28384 12.4364 8.39925 12.5216 8.52856 12.58C8.65787 12.6384 8.79812 12.6686 8.94 12.6686C9.08188 12.6686 9.22213 12.6384 9.35144 12.58C9.48075 12.5216 9.59616 12.4364 9.69 12.33L12.44 9.42C12.5338 9.31359 12.6493 9.22837 12.7786 9.17C12.9079 9.11163 13.0481 9.08144 13.19 9.08144C13.3319 9.08144 13.4721 9.11163 13.6014 9.17C13.7307 9.22837 13.8462 9.31359 13.94 9.42L20 15.75" stroke="#353E50" stroke-width="1.5" stroke-linecap="round" stroke-linejoin="round"/>
<path d="M15 17H20C20.2652 17 20.5196 16.8946 20.7071 16.7071C20.8946 16.5196 21 16.2652 21 16V11" stroke="#353E50" stroke-width="1.5" stroke-linecap="round" stroke-linejoin="round"/>
</svg>
