<svg width="24" height="24" viewBox="0 0 24 24" fill="none" xmlns="http://www.w3.org/2000/svg">
<path d="M9.25 21C9.25 21.4142 9.58579 21.75 10 21.75C10.4142 21.75 10.75 21.4142 10.75 21H9.25ZM18.25 13.2857C18.25 13.6999 18.5858 14.0357 19 14.0357C19.4142 14.0357 19.75 13.6999 19.75 13.2857H18.25ZM10.75 21V7.5H9.25V21H10.75ZM18.25 7.5V13.2857H19.75V7.5H18.25ZM14.5 3.75C16.5711 3.75 18.25 5.42893 18.25 7.5H19.75C19.75 4.6005 17.3995 2.25 14.5 2.25V3.75ZM10.75 7.5C10.75 5.42893 12.4289 3.75 14.5 3.75V2.25C11.6005 2.25 9.25 4.6005 9.25 7.5H10.75Z" fill="#353E50"/>
<path d="M5 16L9.4 20.73C9.47507 20.8151 9.5674 20.8833 9.67085 20.93C9.7743 20.9767 9.8865 21.0009 10 21.0009C10.1135 21.0009 10.2257 20.9767 10.3292 20.93C10.4326 20.8833 10.5249 20.8151 10.6 20.73L15 16" stroke="#353E50" stroke-width="1.5" stroke-linecap="round" stroke-linejoin="round"/>
</svg>
