<svg width="24" height="24" viewBox="0 0 24 24" fill="none" xmlns="http://www.w3.org/2000/svg">
<path d="M15 6.21002L12.35 8.85002C12.3051 8.89785 12.2509 8.93597 12.1907 8.96204C12.1305 8.9881 12.0656 9.00154 12 9.00154C11.9344 9.00154 11.8695 8.9881 11.8093 8.96204C11.7491 8.93597 11.6949 8.89785 11.65 8.85002L9 6.21002" stroke="#353E50" stroke-width="1.5" stroke-linecap="round" stroke-linejoin="round"/>
<path d="M12 8.71V2" stroke="#353E50" stroke-width="1.5" stroke-linecap="round" stroke-linejoin="round"/>
<path d="M9 17.79L11.65 15.15C11.6949 15.1022 11.7491 15.064 11.8093 15.038C11.8695 15.0119 11.9344 14.9985 12 14.9985C12.0656 14.9985 12.1305 15.0119 12.1907 15.038C12.2509 15.064 12.3051 15.1022 12.35 15.15L15 17.79" stroke="#353E50" stroke-width="1.5" stroke-linecap="round" stroke-linejoin="round"/>
<path d="M12 15.29V22" stroke="#353E50" stroke-width="1.5" stroke-linecap="round" stroke-linejoin="round"/>
<path d="M6.20996 9L8.84996 11.65C8.89779 11.6949 8.93591 11.7491 8.96197 11.8093C8.98803 11.8695 9.00148 11.9344 9.00148 12C9.00148 12.0656 8.98803 12.1305 8.96197 12.1907C8.93591 12.2509 8.89779 12.3051 8.84996 12.35L6.20996 15" stroke="#353E50" stroke-width="1.5" stroke-linecap="round" stroke-linejoin="round"/>
<path d="M8.71 12H2" stroke="#353E50" stroke-width="1.5" stroke-linecap="round" stroke-linejoin="round"/>
<path d="M17.7901 15L15.1501 12.35C15.1022 12.3051 15.0641 12.2509 15.038 12.1907C15.012 12.1305 14.9985 12.0656 14.9985 12C14.9985 11.9344 15.012 11.8695 15.038 11.8093C15.0641 11.7491 15.1022 11.6949 15.1501 11.65L17.7901 9" stroke="#353E50" stroke-width="1.5" stroke-linecap="round" stroke-linejoin="round"/>
<path d="M15.29 12H22" stroke="#353E50" stroke-width="1.5" stroke-linecap="round" stroke-linejoin="round"/>
</svg>
