<svg width="24" height="24" viewBox="0 0 24 24" fill="none" xmlns="http://www.w3.org/2000/svg">
<path d="M21 6.49997L17.85 3.15997C17.8059 3.11079 17.752 3.07145 17.6917 3.04452C17.6314 3.01758 17.566 3.00366 17.5 3.00366C17.434 3.00366 17.3686 3.01758 17.3083 3.04452C17.248 3.07145 17.1941 3.11079 17.15 3.15997L14 6.49997" stroke="#353E50" stroke-width="1.5" stroke-linecap="round" stroke-linejoin="round"/>
<path d="M3 17.5L6.15 20.84C6.19408 20.8892 6.24803 20.9285 6.30834 20.9555C6.36865 20.9824 6.43395 20.9963 6.5 20.9963C6.56605 20.9963 6.63135 20.9824 6.69166 20.9555C6.75197 20.9285 6.80592 20.8892 6.85 20.84L10 17.5" stroke="#353E50" stroke-width="1.5" stroke-linecap="round" stroke-linejoin="round"/>
<path d="M6.49994 20.25V10.25C6.4674 9.48766 6.73871 8.74357 7.25431 8.1811C7.76991 7.61862 8.48765 7.28375 9.24994 7.25V7.25C10.0122 7.28375 10.73 7.61862 11.2456 8.1811C11.7612 8.74357 12.0325 9.48766 11.9999 10.25V13.25C11.9674 14.0123 12.2387 14.7564 12.7543 15.3189C13.2699 15.8814 13.9877 16.2163 14.7499 16.25V16.25C15.5122 16.2163 16.23 15.8814 16.7456 15.3189C17.2612 14.7564 17.5325 14.0123 17.4999 13.25V3.25" stroke="#353E50" stroke-width="1.5" stroke-linecap="round" stroke-linejoin="round"/>
</svg>
