<svg width="24" height="24" viewBox="0 0 24 24" fill="none" xmlns="http://www.w3.org/2000/svg">
<path d="M7 20V5" stroke="#353E50" stroke-width="1.5" stroke-linecap="round" stroke-linejoin="round"/>
<path d="M3 8.00002L6.6667 4.14522C6.70929 4.09941 6.76087 4.06287 6.81822 4.03788C6.87557 4.0129 6.93745 4 7 4C7.06255 4 7.12443 4.0129 7.18178 4.03788C7.23913 4.06287 7.29071 4.09941 7.3333 4.14522L11 8.00002" stroke="#353E50" stroke-width="1.5" stroke-linecap="round" stroke-linejoin="round"/>
<path d="M17 4V19" stroke="#353E50" stroke-width="1.5" stroke-linecap="round" stroke-linejoin="round"/>
<path d="M21 16L17.3333 19.8548C17.2907 19.9006 17.2391 19.9372 17.1818 19.9621C17.1244 19.9871 17.0626 20 17 20C16.9374 20 16.8756 19.9871 16.8182 19.9621C16.7609 19.9372 16.7093 19.9006 16.6667 19.8548L13 16" stroke="#353E50" stroke-width="1.5" stroke-linecap="round" stroke-linejoin="round"/>
</svg>
