<svg width="24" height="24" viewBox="0 0 24 24" fill="none" xmlns="http://www.w3.org/2000/svg">
<path d="M12 3L14.73 5.4C14.8151 5.47507 14.8833 5.5674 14.93 5.67085C14.9767 5.7743 15.0008 5.8865 15.0008 6C15.0008 6.1135 14.9767 6.2257 14.93 6.32915C14.8833 6.4326 14.8151 6.52493 14.73 6.6L12 9" stroke="#353E50" stroke-width="1.5" stroke-linecap="round" stroke-linejoin="round"/>
<path d="M12.0001 21L9.27012 18.6C9.18499 18.5249 9.11682 18.4326 9.07012 18.3292C9.02342 18.2257 8.99927 18.1135 8.99927 18C8.99927 17.8865 9.02342 17.7743 9.07012 17.6708C9.11682 17.5674 9.18499 17.4751 9.27012 17.4L12.0001 15" stroke="#353E50" stroke-width="1.5" stroke-linecap="round" stroke-linejoin="round"/>
<path d="M18.94 7.47998C19.8597 8.28284 20.5126 9.34714 20.8115 10.5308C21.1104 11.7144 21.0412 12.9611 20.613 14.1044C20.1848 15.2476 19.4181 16.2331 18.4152 16.9292C17.4122 17.6252 16.2208 17.9988 15 18H9" stroke="#353E50" stroke-width="1.5" stroke-linecap="round" stroke-linejoin="round"/>
<path d="M4.76003 16.24C4.20004 15.6854 3.75603 15.0248 3.45387 14.2969C3.1517 13.569 2.99743 12.7882 3.00003 12C3.00003 10.4087 3.63217 8.88258 4.75739 7.75736C5.88261 6.63214 7.40873 6 9.00003 6H15" stroke="#353E50" stroke-width="1.5" stroke-linecap="round" stroke-linejoin="round"/>
</svg>
