<svg width="24" height="24" viewBox="0 0 24 24" fill="none" xmlns="http://www.w3.org/2000/svg">
<path d="M12 8V20" stroke="#353E50" stroke-width="1.5" stroke-linecap="round" stroke-linejoin="round"/>
<path d="M16 16L12.3631 19.8418C12.3167 19.8917 12.2605 19.9315 12.198 19.9587C12.1356 19.9859 12.0681 20 12 20C11.9319 20 11.8644 19.9859 11.802 19.9587C11.7395 19.9315 11.6833 19.8917 11.6369 19.8418L8 16" stroke="#353E50" stroke-width="1.5" stroke-linecap="round" stroke-linejoin="round"/>
<path d="M16.0001 12.0001H18.8949C19.225 12.0125 19.5531 11.9437 19.8503 11.7995C20.1475 11.6554 20.4047 11.4403 20.5993 11.1734C20.7938 10.9064 20.9198 10.5957 20.966 10.2687C21.0122 9.94158 20.9773 9.60816 20.8643 9.29775L19.2868 5.29775C19.1259 4.90933 18.8523 4.57806 18.5012 4.34673C18.1501 4.11541 17.7378 3.99465 17.3174 4.00005H6.6828C6.2624 3.99466 5.85004 4.11543 5.49898 4.34677C5.14791 4.57812 4.87427 4.90941 4.7134 5.29785L3.1359 9.29785C3.02292 9.60825 2.988 9.94168 3.03422 10.2688C3.08043 10.5958 3.20636 10.9065 3.40092 11.1735C3.59548 11.4404 3.85269 11.6554 4.1499 11.7996C4.44712 11.9437 4.77522 12.0126 5.1053 12.0001H8.0001" stroke="#353E50" stroke-width="1.5" stroke-linecap="round" stroke-linejoin="round"/>
</svg>
