<svg width="24" height="24" viewBox="0 0 24 24" fill="none" xmlns="http://www.w3.org/2000/svg">
<path d="M6.5 20.5V13.8271C6.5 12.9819 6.85656 12.1759 7.48198 11.6073L11.3453 8.09514C11.7623 7.7161 12 7.17875 12 6.61526V3" stroke="#353E50" stroke-width="1.5" stroke-linecap="round" stroke-linejoin="round"/>
<path d="M21 17.5L17.85 20.84C17.8059 20.8892 17.752 20.9285 17.6917 20.9555C17.6314 20.9824 17.566 20.9963 17.5 20.9963C17.434 20.9963 17.3686 20.9824 17.3083 20.9555C17.248 20.9285 17.1941 20.8892 17.15 20.84L14 17.5" stroke="#353E50" stroke-width="1.5" stroke-linecap="round" stroke-linejoin="round"/>
<path d="M3 17.5L6.15 20.84C6.19408 20.8892 6.24803 20.9285 6.30834 20.9555C6.36865 20.9824 6.43395 20.9963 6.5 20.9963C6.56605 20.9963 6.63135 20.9824 6.69166 20.9555C6.75197 20.9285 6.80592 20.8892 6.85 20.84L10 17.5" stroke="#353E50" stroke-width="1.5" stroke-linecap="round" stroke-linejoin="round"/>
<path d="M17.5 20.5V13.9051C17.5 13.0148 17.1045 12.1704 16.4206 11.6005L14.5 10" stroke="#353E50" stroke-width="1.5" stroke-linecap="round" stroke-linejoin="round"/>
</svg>
