<svg width="24" height="24" viewBox="0 0 24 24" fill="none" xmlns="http://www.w3.org/2000/svg">
<path d="M17.5 3L20.84 6.15C20.8892 6.19408 20.9285 6.24803 20.9555 6.30834C20.9824 6.36865 20.9963 6.43395 20.9963 6.5C20.9963 6.56605 20.9824 6.63135 20.9555 6.69166C20.9285 6.75197 20.8892 6.80592 20.84 6.85L17.5 10" stroke="#353E50" stroke-width="1.5" stroke-linecap="round" stroke-linejoin="round"/>
<path d="M20.25 6.5H6.25C5.45435 6.5 4.69129 6.81607 4.12868 7.37868C3.56607 7.94129 3.25 8.70435 3.25 9.5C3.25 10.2956 3.56607 11.0587 4.12868 11.6213C4.69129 12.1839 5.45435 12.5 6.25 12.5H13.25C14.0456 12.5 14.8087 12.8161 15.3713 13.3787C15.9339 13.9413 16.25 14.7044 16.25 15.5C16.25 16.2956 15.9339 17.0587 15.3713 17.6213C14.8087 18.1839 14.0456 18.5 13.25 18.5H8.25" stroke="#353E50" stroke-width="1.5" stroke-linecap="round" stroke-linejoin="round"/>
<path d="M5.5 21C6.88071 21 8 19.8807 8 18.5C8 17.1193 6.88071 16 5.5 16C4.11929 16 3 17.1193 3 18.5C3 19.8807 4.11929 21 5.5 21Z" stroke="#353E50" stroke-width="1.5" stroke-linecap="round" stroke-linejoin="round"/>
</svg>
