<svg width="24" height="24" viewBox="0 0 24 24" fill="none" xmlns="http://www.w3.org/2000/svg">
<path d="M5.47639 18.2C4.25222 16.9119 3.43673 15.2903 3.13271 13.5396C2.82868 11.7888 3.04974 9.9872 3.76801 8.36186C4.48628 6.73653 5.66962 5.36019 7.16888 4.40633C8.66813 3.45246 10.4162 2.96376 12.1928 3.00182C13.9693 3.03988 15.6949 3.603 17.1519 4.6202C18.6089 5.6374 19.7322 7.06315 20.3802 8.71776C21.0283 10.3724 21.1719 12.1818 20.7932 13.9179C20.4145 15.6541 19.5303 17.2392 18.2521 18.4737" stroke="#353E50" stroke-width="1.5" stroke-linecap="round" stroke-linejoin="round" stroke-dasharray="0.1 0.1"/>
<path d="M16 12.5857L12.3628 8.7438C12.3164 8.69392 12.2603 8.65414 12.1979 8.62694C12.1355 8.59973 12.0681 8.58569 12 8.58569C11.9319 8.58569 11.8645 8.59973 11.8021 8.62694C11.7397 8.65414 11.6836 8.69392 11.6372 8.7438L8 12.5857" stroke="#353E50" stroke-width="1.5" stroke-linecap="round" stroke-linejoin="round"/>
<path d="M12 9.52515V21" stroke="#353E50" stroke-width="1.5" stroke-linecap="round" stroke-linejoin="round"/>
</svg>
