<svg width="24" height="24" viewBox="0 0 24 24" fill="none" xmlns="http://www.w3.org/2000/svg">
<path d="M12 16L12 4" stroke="#353E50" stroke-width="1.5" stroke-linecap="round" stroke-linejoin="round"/>
<path d="M8 8L11.6369 4.1582C11.6833 4.10829 11.7395 4.06849 11.802 4.04127C11.8644 4.01405 11.9319 4 12 4C12.0681 4 12.1356 4.01405 12.198 4.04127C12.2605 4.06849 12.3167 4.10829 12.3631 4.1582L16 8" stroke="#353E50" stroke-width="1.5" stroke-linecap="round" stroke-linejoin="round"/>
<path d="M8.5 12L7.2686 12C6.42357 12 5.66973 12.5311 5.3853 13.3268L3.95552 17.3268C3.48991 18.6294 4.45553 20 5.83882 20L8.60284 20L15.2971 20L18.1612 20C19.5445 20 20.5101 18.6294 20.0445 17.3268L18.6147 13.3268C18.3303 12.5311 17.5764 12 16.7314 12L15.5 12" stroke="#353E50" stroke-width="1.5" stroke-linecap="round" stroke-linejoin="round"/>
</svg>
