<svg width="24" height="24" viewBox="0 0 24 24" fill="none" xmlns="http://www.w3.org/2000/svg">
<path d="M8 7L11.7 3.13C11.7391 3.09009 11.7858 3.05838 11.8373 3.03673C11.8888 3.01509 11.9441 3.00394 12 3.00394C12.0559 3.00394 12.1112 3.01509 12.1627 3.03673C12.2142 3.05838 12.2609 3.09009 12.3 3.13L16 7" stroke="#353E50" stroke-width="1.5" stroke-linecap="round" stroke-linejoin="round"/>
<path d="M16 17L12.3 20.87C12.2609 20.9099 12.2142 20.9416 12.1627 20.9633C12.1112 20.9849 12.0559 20.9961 12 20.9961C11.9441 20.9961 11.8888 20.9849 11.8373 20.9633C11.7858 20.9416 11.7391 20.9099 11.7 20.87L8 17" stroke="#353E50" stroke-width="1.5" stroke-linecap="round" stroke-linejoin="round"/>
</svg>
