<svg width="24" height="24" viewBox="0 0 24 24" fill="none" xmlns="http://www.w3.org/2000/svg">
<path d="M11 12L15.6464 7.14637C15.6928 7.09993 15.748 7.06309 15.8086 7.03795C15.8693 7.01282 15.9343 6.99988 16 6.99988C16.0657 6.99988 16.1307 7.01282 16.1914 7.03795C16.252 7.06309 16.3072 7.09993 16.3536 7.14637L21 12" stroke="#353E50" stroke-width="1.5" stroke-linecap="round" stroke-linejoin="round"/>
<path d="M16 7.29285V20.9999" stroke="#353E50" stroke-width="1.5" stroke-linecap="round" stroke-linejoin="round"/>
<path d="M3 3H21" stroke="#353E50" stroke-width="1.5" stroke-linecap="round" stroke-linejoin="round"/>
<path d="M3 21H9" stroke="#353E50" stroke-width="1.5" stroke-linecap="round" stroke-linejoin="round"/>
<path d="M6 7H4C3.44772 7 3 7.44772 3 8V16C3 16.5523 3.44772 17 4 17H6C6.55228 17 7 16.5523 7 16V8C7 7.44772 6.55228 7 6 7Z" stroke="#353E50" stroke-width="1.5" stroke-linecap="round" stroke-linejoin="round"/>
</svg>
