<svg width="24" height="24" viewBox="0 0 24 24" fill="none" xmlns="http://www.w3.org/2000/svg">
<path d="M2.875 7.875L5.77266 7.875C6.45889 7.875 7.0972 8.22682 7.46364 8.80701L11.992 15.977C12.5417 16.8473 13.4992 17.375 14.5285 17.375L20.375 17.375" stroke="#353E50" stroke-width="1.5" stroke-linecap="round"/>
<path d="M2.875 15.875L5.77266 15.875C6.45889 15.875 7.0972 15.5232 7.46364 14.943L7.82237 14.375M20.375 6.375L14.5285 6.375C13.4992 6.375 12.5417 6.90273 11.992 7.77302L11.2961 8.875" stroke="#353E50" stroke-width="1.5" stroke-linecap="round" stroke-linejoin="round"/>
<path d="M17.8867 2.32671C17.5839 2.04408 17.1093 2.06045 16.8267 2.36326C16.5441 2.66607 16.5604 3.14067 16.8633 3.42329L17.8867 2.32671ZM16.8633 9.32671C16.5604 9.60933 16.5441 10.0839 16.8267 10.3867C17.1093 10.6896 17.5839 10.7059 17.8867 10.4233L16.8633 9.32671ZM20.7334 6.74053L20.2216 6.19224L20.7334 6.74053ZM16.8633 3.42329L20.2216 6.55776L21.2451 5.46118L17.8867 2.32671L16.8633 3.42329ZM20.2216 6.19224L16.8633 9.32671L17.8867 10.4233L21.2451 7.28882L20.2216 6.19224ZM20.2216 6.55776C20.1157 6.45893 20.1157 6.29107 20.2216 6.19224L21.2451 7.28882C21.7746 6.79465 21.7746 5.95535 21.2451 5.46118L20.2216 6.55776Z" fill="#353E50"/>
<path d="M17.8867 13.3267C17.5839 13.0441 17.1093 13.0604 16.8267 13.3633C16.5441 13.6661 16.5604 14.1407 16.8633 14.4233L17.8867 13.3267ZM16.8633 20.3267C16.5604 20.6093 16.5441 21.0839 16.8267 21.3867C17.1093 21.6896 17.5839 21.7059 17.8867 21.4233L16.8633 20.3267ZM20.7334 17.7405L20.2216 17.1922L20.7334 17.7405ZM16.8633 14.4233L20.2216 17.5578L21.2451 16.4612L17.8867 13.3267L16.8633 14.4233ZM20.2216 17.1922L16.8633 20.3267L17.8867 21.4233L21.2451 18.2888L20.2216 17.1922ZM20.2216 17.5578C20.1157 17.4589 20.1157 17.2911 20.2216 17.1922L21.2451 18.2888C21.7746 17.7946 21.7746 16.9554 21.2451 16.4612L20.2216 17.5578Z" fill="#353E50"/>
</svg>
