<svg width="24" height="24" viewBox="0 0 24 24" fill="none" xmlns="http://www.w3.org/2000/svg">
<path d="M16 12H4" stroke="#353E50" stroke-width="1.5" stroke-linecap="round" stroke-linejoin="round"/>
<path d="M8 8L4.1582 11.6369C4.10829 11.6833 4.06849 11.7395 4.04127 11.802C4.01405 11.8644 4 11.9319 4 12C4 12.0681 4.01405 12.1356 4.04127 12.198C4.06849 12.2605 4.10829 12.3167 4.1582 12.3631L8 16" stroke="#353E50" stroke-width="1.5" stroke-linecap="round" stroke-linejoin="round"/>
<path d="M12 8.5V7.2686C12 6.42357 12.5311 5.66973 13.3268 5.3853L17.3268 3.95552C18.6294 3.48991 20 4.45553 20 5.83882V8.60284V15.2971V18.1612C20 19.5445 18.6294 20.5101 17.3268 20.0445L13.3268 18.6147C12.5311 18.3303 12 17.5764 12 16.7314V15.5" stroke="#353E50" stroke-width="1.5" stroke-linecap="round" stroke-linejoin="round"/>
</svg>
