<svg width="24" height="24" viewBox="0 0 24 24" fill="none" xmlns="http://www.w3.org/2000/svg">
<path d="M20 7H5" stroke="#353E50" stroke-width="1.5" stroke-linecap="round" stroke-linejoin="round"/>
<path d="M8.00002 3L4.14522 6.6667C4.09941 6.70929 4.06287 6.76087 4.03788 6.81822C4.0129 6.87557 4 6.93745 4 7C4 7.06255 4.0129 7.12443 4.03788 7.18178C4.06287 7.23913 4.09941 7.29071 4.14522 7.3333L8.00002 11" stroke="#353E50" stroke-width="1.5" stroke-linecap="round" stroke-linejoin="round"/>
<path d="M4 17H19" stroke="#353E50" stroke-width="1.5" stroke-linecap="round" stroke-linejoin="round"/>
<path d="M16 21L19.8548 17.3333C19.9006 17.2907 19.9372 17.2391 19.9621 17.1818C19.9871 17.1244 20 17.0626 20 17C20 16.9374 19.9871 16.8756 19.9621 16.8182C19.9372 16.7609 19.9006 16.7093 19.8548 16.6667L16 13" stroke="#353E50" stroke-width="1.5" stroke-linecap="round" stroke-linejoin="round"/>
</svg>
