<svg width="24" height="24" viewBox="0 0 24 24" fill="none" xmlns="http://www.w3.org/2000/svg">
<path d="M16 21C19 21 19 20 19 18C19 16 19 15 16 15C13 15 13 16 13 18C13 20 13 21 16 21Z" stroke="#353E50" stroke-width="1.5" stroke-linecap="round" stroke-linejoin="round"/>
<path d="M20 7L16.6 10.73C16.5249 10.8151 16.4326 10.8833 16.3292 10.93C16.2257 10.9767 16.1135 11.0008 16 11.0008C15.8865 11.0008 15.7743 10.9767 15.6708 10.93C15.5674 10.8833 15.4751 10.8151 15.4 10.73L12 7" stroke="#353E50" stroke-width="1.5" stroke-linecap="round" stroke-linejoin="round"/>
<path d="M16 3V11" stroke="#353E50" stroke-width="1.5" stroke-linecap="round" stroke-linejoin="round"/>
<path d="M4 21V17" stroke="#353E50" stroke-width="1.5" stroke-linecap="round" stroke-linejoin="round"/>
<path d="M8.5 21V12" stroke="#353E50" stroke-width="1.5" stroke-linecap="round" stroke-linejoin="round"/>
</svg>
