<svg width="24" height="24" viewBox="0 0 24 24" fill="none" xmlns="http://www.w3.org/2000/svg">
<path d="M14.5001 21L11.7701 18.6C11.685 18.5249 11.6168 18.4326 11.5701 18.3292C11.5234 18.2257 11.4993 18.1135 11.4993 18C11.4993 17.8865 11.5234 17.7743 11.5701 17.6708C11.6168 17.5674 11.685 17.4751 11.7701 17.4L14.5001 15" stroke="#353E50" stroke-width="1.5" stroke-linecap="round" stroke-linejoin="round"/>
<path d="M7.37003 17.78C5.97095 17.3904 4.76068 16.5065 3.96375 15.2924C3.16681 14.0782 2.83732 12.6162 3.03638 11.1776C3.23544 9.739 3.94955 8.42141 5.04623 7.46928C6.14291 6.51716 7.54771 5.99513 9.00003 6.00003H15C16.5913 6.00003 18.1175 6.63218 19.2427 7.75739C20.3679 8.88261 21 10.4087 21 12C21 13.5913 20.3679 15.1175 19.2427 16.2427C18.1175 17.3679 16.5913 18 15 18H11.5" stroke="#353E50" stroke-width="1.5" stroke-linecap="round" stroke-linejoin="round"/>
</svg>
