<svg width="24" height="24" viewBox="0 0 24 24" fill="none" xmlns="http://www.w3.org/2000/svg">
<path d="M3 17L8.19 11.67C8.28384 11.5636 8.39925 11.4784 8.52856 11.42C8.65787 11.3616 8.79812 11.3314 8.94 11.3314C9.08188 11.3314 9.22213 11.3616 9.35144 11.42C9.48075 11.4784 9.59616 11.5636 9.69 11.67L12.44 14.58C12.5338 14.6864 12.6493 14.7716 12.7786 14.83C12.9079 14.8884 13.0481 14.9186 13.19 14.9186C13.3319 14.9186 13.4721 14.8884 13.6014 14.83C13.7307 14.7716 13.8462 14.6864 13.94 14.58L20 8.25" stroke="#353E50" stroke-width="1.5" stroke-linecap="round" stroke-linejoin="round"/>
<path d="M15 7H20C20.2652 7 20.5196 7.10536 20.7071 7.29289C20.8946 7.48043 21 7.73478 21 8V13" stroke="#353E50" stroke-width="1.5" stroke-linecap="round" stroke-linejoin="round"/>
</svg>
