<svg width="24" height="24" viewBox="0 0 24 24" fill="none" xmlns="http://www.w3.org/2000/svg">
<path d="M6.49997 21L3.15997 17.85C3.11079 17.8059 3.07145 17.752 3.04452 17.6917C3.01758 17.6314 3.00366 17.566 3.00366 17.5C3.00366 17.434 3.01758 17.3686 3.04452 17.3083C3.07145 17.248 3.11079 17.1941 3.15997 17.15L6.49997 14" stroke="#353E50" stroke-width="1.5" stroke-linecap="round" stroke-linejoin="round"/>
<path d="M3.75 17.5H17.75C18.5456 17.5 19.3087 17.1839 19.8713 16.6213C20.4339 16.0587 20.75 15.2956 20.75 14.5C20.75 13.7044 20.4339 12.9413 19.8713 12.3787C19.3087 11.8161 18.5456 11.5 17.75 11.5H10.75C9.95435 11.5 9.19129 11.1839 8.62868 10.6213C8.06607 10.0587 7.75 9.29565 7.75 8.5C7.75 7.70435 8.06607 6.94129 8.62868 6.37868C9.19129 5.81607 9.95435 5.5 10.75 5.5H15.75" stroke="#353E50" stroke-width="1.5" stroke-linecap="round" stroke-linejoin="round"/>
<path d="M18.5 8C19.8807 8 21 6.88071 21 5.5C21 4.11929 19.8807 3 18.5 3C17.1193 3 16 4.11929 16 5.5C16 6.88071 17.1193 8 18.5 8Z" stroke="#353E50" stroke-width="1.5" stroke-linecap="round" stroke-linejoin="round"/>
</svg>
