<svg width="24" height="24" viewBox="0 0 24 24" fill="none" xmlns="http://www.w3.org/2000/svg">
<path d="M11 12L15.6464 16.8536C15.6928 16.9 15.748 16.9369 15.8086 16.962C15.8693 16.9872 15.9343 17.0001 16 17.0001C16.0657 17.0001 16.1307 16.9872 16.1914 16.962C16.252 16.9369 16.3072 16.9 16.3536 16.8536L21 12" stroke="#353E50" stroke-width="1.5" stroke-linecap="round" stroke-linejoin="round"/>
<path d="M16 16.7071V3" stroke="#353E50" stroke-width="1.5" stroke-linecap="round" stroke-linejoin="round"/>
<path d="M3 21H21" stroke="#353E50" stroke-width="1.5" stroke-linecap="round" stroke-linejoin="round"/>
<path d="M3 3H9" stroke="#353E50" stroke-width="1.5" stroke-linecap="round" stroke-linejoin="round"/>
<path d="M6 7H4C3.44772 7 3 7.44772 3 8V16C3 16.5523 3.44772 17 4 17H6C6.55228 17 7 16.5523 7 16V8C7 7.44772 6.55228 7 6 7Z" stroke="#353E50" stroke-width="1.5" stroke-linecap="round" stroke-linejoin="round"/>
</svg>
