<svg width="24" height="24" viewBox="0 0 24 24" fill="none" xmlns="http://www.w3.org/2000/svg">
<path d="M8 21C11 21 11 20 11 18C11 16 11 15 8 15C5 15 5 16 5 18C5 20 5 21 8 21Z" stroke="#353E50" stroke-width="1.5" stroke-linecap="round" stroke-linejoin="round"/>
<path d="M12 7L8.6 10.73C8.52493 10.8151 8.4326 10.8833 8.32915 10.93C8.2257 10.9767 8.1135 11.0008 8 11.0008C7.8865 11.0008 7.7743 10.9767 7.67085 10.93C7.5674 10.8833 7.47507 10.8151 7.4 10.73L4 7" stroke="#353E50" stroke-width="1.5" stroke-linecap="round" stroke-linejoin="round"/>
<path d="M8 3V11" stroke="#353E50" stroke-width="1.5" stroke-linecap="round" stroke-linejoin="round"/>
<path d="M20 21V17" stroke="#353E50" stroke-width="1.5" stroke-linecap="round" stroke-linejoin="round"/>
<path d="M15.5 21V12" stroke="#353E50" stroke-width="1.5" stroke-linecap="round" stroke-linejoin="round"/>
</svg>
