<svg width="24" height="24" viewBox="0 0 24 24" fill="none" xmlns="http://www.w3.org/2000/svg">
<path d="M8 12H20" stroke="#353E50" stroke-width="1.5" stroke-linecap="round" stroke-linejoin="round"/>
<path d="M16 8L19.8418 11.6369C19.8917 11.6833 19.9315 11.7395 19.9587 11.802C19.9859 11.8644 20 11.9319 20 12C20 12.0681 19.9859 12.1356 19.9587 12.198C19.9315 12.2605 19.8917 12.3167 19.8418 12.3631L16 16" stroke="#353E50" stroke-width="1.5" stroke-linecap="round" stroke-linejoin="round"/>
<path d="M12 8.5V7.2686C12 6.42357 11.4689 5.66973 10.6732 5.3853L6.67318 3.95552C5.3706 3.48991 4 4.45553 4 5.83882V8.60284V15.2971V18.1612C4 19.5445 5.3706 20.5101 6.67318 20.0445L10.6732 18.6147C11.4689 18.3303 12 17.5764 12 16.7314V15.5" stroke="#353E50" stroke-width="1.5" stroke-linecap="round" stroke-linejoin="round"/>
</svg>
