<svg width="24" height="24" viewBox="0 0 24 24" fill="none" xmlns="http://www.w3.org/2000/svg">
<path d="M18.2 18.5236C16.9119 19.7478 15.2903 20.5633 13.5396 20.8673C11.7888 21.1713 9.9872 20.9503 8.36186 20.232C6.73653 19.5137 5.36019 18.3304 4.40633 16.8311C3.45246 15.3319 2.96376 13.5838 3.00182 11.8072C3.03988 10.0307 3.603 8.30513 4.6202 6.8481C5.6374 5.39107 7.06315 4.26776 8.71776 3.61976C10.3724 2.97176 12.1818 2.82806 13.9179 3.20678C15.6541 3.58551 17.2392 4.4697 18.4737 5.74791" stroke="#353E50" stroke-width="1.5" stroke-linecap="round" stroke-linejoin="round" stroke-dasharray="0.1 0.1"/>
<path d="M12.5857 8L8.7438 11.6372C8.69392 11.6836 8.65414 11.7397 8.62694 11.8021C8.59973 11.8645 8.58569 11.9319 8.58569 12C8.58569 12.0681 8.59973 12.1355 8.62694 12.1979C8.65414 12.2603 8.69392 12.3164 8.7438 12.3628L12.5857 16" stroke="#353E50" stroke-width="1.5" stroke-linecap="round" stroke-linejoin="round"/>
<path d="M9.52515 12H21" stroke="#353E50" stroke-width="1.5" stroke-linecap="round" stroke-linejoin="round"/>
</svg>
