<svg width="24" height="24" viewBox="0 0 24 24" fill="none" xmlns="http://www.w3.org/2000/svg">
<path d="M9.25 3C9.25 2.58579 9.58579 2.25 10 2.25C10.4142 2.25 10.75 2.58579 10.75 3H9.25ZM18.25 11C18.25 10.5858 18.5858 10.25 19 10.25C19.4142 10.25 19.75 10.5858 19.75 11H18.25ZM10.75 3V16.5H9.25V3H10.75ZM18.25 16.5V11H19.75V16.5H18.25ZM14.5 20.25C16.5711 20.25 18.25 18.5711 18.25 16.5H19.75C19.75 19.3995 17.3995 21.75 14.5 21.75V20.25ZM10.75 16.5C10.75 18.5711 12.4289 20.25 14.5 20.25V21.75C11.6005 21.75 9.25 19.3995 9.25 16.5H10.75Z" fill="#353E50"/>
<path d="M5 8L9.4 3.27C9.47507 3.18487 9.5674 3.11669 9.67085 3.07C9.7743 3.0233 9.8865 2.99915 10 2.99915C10.1135 2.99915 10.2257 3.0233 10.3292 3.07C10.4326 3.11669 10.5249 3.18487 10.6 3.27L15 8" stroke="#353E50" stroke-width="1.5" stroke-linecap="round" stroke-linejoin="round"/>
</svg>
