<svg width="24" height="24" viewBox="0 0 24 24" fill="none" xmlns="http://www.w3.org/2000/svg">
<path d="M19 10L21.73 12.4C21.8151 12.4751 21.8833 12.5674 21.93 12.6708C21.9767 12.7743 22.0009 12.8865 22.0009 13C22.0009 13.1135 21.9767 13.2257 21.93 13.3292C21.8833 13.4326 21.8151 13.5249 21.73 13.6L19 16" stroke="#353E50" stroke-width="1.5" stroke-linecap="round" stroke-linejoin="round"/>
<path d="M11.9999 20V19.82C11.9874 18.9125 12.1586 18.0117 12.5032 17.1721C12.8478 16.3324 13.3587 15.5711 14.0052 14.934C14.6517 14.2969 15.4203 13.7971 16.2649 13.4647C17.1095 13.1324 18.0126 12.9743 18.9199 13H21.9999" stroke="#353E50" stroke-width="1.5" stroke-linecap="round" stroke-linejoin="round"/>
<path d="M8 7L11.4 3.27C11.4751 3.18487 11.5674 3.11669 11.6708 3.07C11.7743 3.0233 11.8865 2.99915 12 2.99915C12.1135 2.99915 12.2257 3.0233 12.3292 3.07C12.4326 3.11669 12.5249 3.18487 12.6 3.27L16 7" stroke="#353E50" stroke-width="1.5" stroke-linecap="round" stroke-linejoin="round"/>
<path d="M12 21V3" stroke="#353E50" stroke-width="1.5" stroke-linecap="round" stroke-linejoin="round"/>
<path d="M5.00012 10L2.27012 12.4C2.18499 12.4751 2.11682 12.5674 2.07012 12.6708C2.02342 12.7743 1.99927 12.8865 1.99927 13C1.99927 13.1135 2.02342 13.2257 2.07012 13.3292C2.11682 13.4326 2.18499 13.5249 2.27012 13.6L5.00012 16" stroke="#353E50" stroke-width="1.5" stroke-linecap="round" stroke-linejoin="round"/>
<path d="M12 20V19.82C12.0125 18.9125 11.8413 18.0117 11.4967 17.1721C11.1521 16.3324 10.6412 15.5711 9.99471 14.934C9.34825 14.2969 8.5796 13.7971 7.73499 13.4647C6.89039 13.1324 5.98728 12.9743 5.08 13H2" stroke="#353E50" stroke-width="1.5" stroke-linecap="round" stroke-linejoin="round"/>
</svg>
