<svg width="24" height="24" viewBox="0 0 24 24" fill="none" xmlns="http://www.w3.org/2000/svg">
<path d="M8 21C11 21 11 20 11 18C11 16 11 15 8 15C5 15 5 16 5 18C5 20 5 21 8 21Z" stroke="#353E50" stroke-width="1.5" stroke-linecap="round" stroke-linejoin="round"/>
<path d="M12 7L8.6 3.27C8.52493 3.18487 8.4326 3.11669 8.32915 3.07C8.2257 3.0233 8.1135 2.99915 8 2.99915C7.8865 2.99915 7.7743 3.0233 7.67085 3.07C7.5674 3.11669 7.47507 3.18487 7.4 3.27L4 7" stroke="#353E50" stroke-width="1.5" stroke-linecap="round" stroke-linejoin="round"/>
<path d="M8 11V3" stroke="#353E50" stroke-width="1.5" stroke-linecap="round" stroke-linejoin="round"/>
<path d="M20 21V17" stroke="#353E50" stroke-width="1.5" stroke-linecap="round" stroke-linejoin="round"/>
<path d="M15.5 21V12" stroke="#353E50" stroke-width="1.5" stroke-linecap="round" stroke-linejoin="round"/>
</svg>
