<svg width="24" height="24" viewBox="0 0 24 24" fill="none" xmlns="http://www.w3.org/2000/svg">
<path d="M16 2.75V5.64766C16 6.33389 15.6482 6.9722 15.068 7.33864L7.89802 11.867C7.02773 12.4167 6.5 13.3742 6.5 14.4035V20.25" stroke="#353E50" stroke-width="1.5" stroke-linecap="round"/>
<path d="M8 2.75V5.64766C8 6.33389 8.35182 6.9722 8.93201 7.33864L9.5 7.69737M17.5 20.25V14.4035C17.5 13.3742 16.9723 12.4167 16.102 11.867L15 11.1711" stroke="#353E50" stroke-width="1.5" stroke-linecap="round" stroke-linejoin="round"/>
<path d="M21.5483 17.7617C21.8309 17.4589 21.8146 16.9843 21.5117 16.7017C21.2089 16.4191 20.7343 16.4354 20.4517 16.7383L21.5483 17.7617ZM14.5483 16.7383C14.2657 16.4354 13.7911 16.4191 13.4883 16.7017C13.1854 16.9843 13.1691 17.4589 13.4517 17.7617L14.5483 16.7383ZM17.1345 20.6084L17.6828 20.0966L17.1345 20.6084ZM20.4517 16.7383L17.3172 20.0966L18.4138 21.1201L21.5483 17.7617L20.4517 16.7383ZM17.6828 20.0966L14.5483 16.7383L13.4517 17.7617L16.5862 21.1201L17.6828 20.0966ZM17.3172 20.0966C17.4161 19.9907 17.5839 19.9907 17.6828 20.0966L16.5862 21.1201C17.0804 21.6496 17.9196 21.6496 18.4138 21.1201L17.3172 20.0966Z" fill="#353E50"/>
<path d="M10.5483 17.7617C10.8309 17.4589 10.8146 16.9843 10.5117 16.7017C10.2089 16.4191 9.73433 16.4354 9.45171 16.7383L10.5483 17.7617ZM3.54829 16.7383C3.26567 16.4354 2.79107 16.4191 2.48826 16.7017C2.18545 16.9843 2.16908 17.4589 2.45171 17.7617L3.54829 16.7383ZM6.13447 20.6084L6.68276 20.0966L6.13447 20.6084ZM9.45171 16.7383L6.31724 20.0966L7.41382 21.1201L10.5483 17.7617L9.45171 16.7383ZM6.68276 20.0966L3.54829 16.7383L2.45171 17.7617L5.58618 21.1201L6.68276 20.0966ZM6.31724 20.0966C6.41607 19.9907 6.58393 19.9907 6.68276 20.0966L5.58618 21.1201C6.08035 21.6496 6.91965 21.6496 7.41382 21.1201L6.31724 20.0966Z" fill="#353E50"/>
</svg>
