<svg width="24" height="24" viewBox="0 0 24 24" fill="none" xmlns="http://www.w3.org/2000/svg">
<path d="M13 4.99999H7.5C6.90868 4.99867 6.32293 5.11417 5.77637 5.33985C5.2298 5.56552 4.73321 5.89694 4.31508 6.31507C3.89695 6.73319 3.56554 7.22979 3.33986 7.77635C3.11418 8.32291 2.99868 8.90867 3 9.49999C2.99868 10.0913 3.11418 10.6771 3.33986 11.2236C3.56554 11.7702 3.89695 12.2668 4.31508 12.6849C4.73321 13.103 5.2298 13.4345 5.77637 13.6601C6.32293 13.8858 6.90868 14.0013 7.5 14H21" stroke="#353E50" stroke-width="1.5" stroke-linecap="round" stroke-linejoin="round"/>
<path d="M16 19L20.73 14.6C20.8151 14.5249 20.8833 14.4326 20.93 14.3292C20.9767 14.2257 21.0009 14.1135 21.0009 14C21.0009 13.8865 20.9767 13.7743 20.93 13.6708C20.8833 13.5674 20.8151 13.4751 20.73 13.4L16 9" stroke="#353E50" stroke-width="1.5" stroke-linecap="round" stroke-linejoin="round"/>
</svg>
