<svg width="24" height="24" viewBox="0 0 24 24" fill="none" xmlns="http://www.w3.org/2000/svg">
<path d="M16 12H4" stroke="#353E50" stroke-width="1.5" stroke-linecap="round" stroke-linejoin="round"/>
<path d="M8 16L4.1582 12.3631C4.10829 12.3167 4.06849 12.2605 4.04127 12.198C4.01405 12.1356 4 12.0681 4 12C4 11.9319 4.01405 11.8644 4.04127 11.802C4.06849 11.7395 4.10829 11.6833 4.1582 11.6369L8 8" stroke="#353E50" stroke-width="1.5" stroke-linecap="round" stroke-linejoin="round"/>
<path d="M12 16V18.8948C11.9875 19.2249 12.0564 19.553 12.2005 19.8502C12.3447 20.1474 12.5597 20.4046 12.8266 20.5992C13.0936 20.7937 13.4043 20.9196 13.7314 20.9659C14.0584 21.0121 14.3919 20.9772 14.7023 20.8642L18.7023 19.2867C19.0907 19.1258 19.422 18.8522 19.6533 18.5011C19.8846 18.15 20.0054 17.7377 20 17.3173V6.68268C20.0054 6.26228 19.8846 5.84992 19.6533 5.49885C19.4219 5.14779 19.0906 4.87415 18.7022 4.71328L14.7022 3.13578C14.3918 3.0228 14.0584 2.98788 13.7313 3.0341C13.4042 3.08031 13.0935 3.20624 12.8266 3.4008C12.5596 3.59535 12.3446 3.85257 12.2005 4.14978C12.0563 4.447 11.9875 4.7751 12 5.10518V7.99998" stroke="#353E50" stroke-width="1.5" stroke-linecap="round" stroke-linejoin="round"/>
</svg>
