<svg width="24" height="24" viewBox="0 0 24 24" fill="none" xmlns="http://www.w3.org/2000/svg">
<path d="M12 3V17" stroke="#353E50" stroke-width="1.5" stroke-linecap="round" stroke-linejoin="round"/>
<path d="M6 8.99999L11.4025 3.26559C11.478 3.18198 11.5701 3.11514 11.6731 3.06939C11.776 3.02364 11.8874 3 12 3C12.1126 3 12.224 3.02364 12.3269 3.06939C12.4299 3.11514 12.522 3.18198 12.5975 3.26559L18 8.99999" stroke="#353E50" stroke-width="1.5" stroke-linecap="round" stroke-linejoin="round"/>
<path d="M8.818 13.318C8.18867 13.9473 7.76009 14.7492 7.58646 15.6221C7.41284 16.495 7.50195 17.3998 7.84255 18.222C8.18315 19.0443 8.75992 19.7471 9.49994 20.2416C10.24 20.736 11.11 21 12 21C12.89 21 13.76 20.736 14.5001 20.2416C15.2401 19.7471 15.8169 19.0443 16.1575 18.222C16.4981 17.3998 16.5872 16.495 16.4135 15.6221C16.2399 14.7492 15.8113 13.9473 15.182 13.318" stroke="#353E50" stroke-width="1.5" stroke-linecap="round" stroke-linejoin="round"/>
</svg>
