<svg width="24" height="24" viewBox="0 0 24 24" fill="none" xmlns="http://www.w3.org/2000/svg">
<path d="M21 12H7" stroke="#353E50" stroke-width="1.5" stroke-linecap="round" stroke-linejoin="round"/>
<path d="M15 18L20.7344 12.5975C20.818 12.522 20.8849 12.4299 20.9306 12.3269C20.9763 12.224 21 12.1126 21 12C21 11.8874 20.9763 11.776 20.9306 11.6731C20.8849 11.5701 20.818 11.478 20.7344 11.4025L15 6" stroke="#353E50" stroke-width="1.5" stroke-linecap="round" stroke-linejoin="round"/>
<path d="M10.682 15.182C10.0526 15.8113 9.2508 16.2399 8.37789 16.4135C7.50497 16.5872 6.60018 16.4981 5.77791 16.1575C4.95565 15.8169 4.25285 15.2401 3.75838 14.5001C3.26392 13.76 3 12.89 3 12C3 11.11 3.26392 10.24 3.75838 9.49994C4.25285 8.75992 4.95565 8.18315 5.77791 7.84255C6.60018 7.50195 7.50497 7.41284 8.37789 7.58646C9.2508 7.76009 10.0526 8.18867 10.682 8.818" stroke="#353E50" stroke-width="1.5" stroke-linecap="round" stroke-linejoin="round"/>
</svg>
