<svg width="24" height="24" viewBox="0 0 24 24" fill="none" xmlns="http://www.w3.org/2000/svg">
<path d="M20 12L12.6 19.73C12.5249 19.8151 12.4326 19.8833 12.3292 19.93C12.2257 19.9767 12.1135 20.0009 12 20.0009C11.8865 20.0009 11.7743 19.9767 11.6708 19.93C11.5674 19.8833 11.4751 19.8151 11.4 19.73L4 12" stroke="#353E50" stroke-width="1.5" stroke-linecap="round" stroke-linejoin="round"/>
<path d="M20 4L12.6 11.73C12.5249 11.8151 12.4326 11.8833 12.3292 11.93C12.2257 11.9767 12.1135 12.0008 12 12.0008C11.8865 12.0008 11.7743 11.9767 11.6708 11.93C11.5674 11.8833 11.4751 11.8151 11.4 11.73L4 4" stroke="#353E50" stroke-width="1.5" stroke-linecap="round" stroke-linejoin="round"/>
</svg>
