<svg width="24" height="24" viewBox="0 0 24 24" fill="none" xmlns="http://www.w3.org/2000/svg">
<path d="M4 7H21" stroke="#353E50" stroke-width="1.5" stroke-linecap="round" stroke-linejoin="round"/>
<path d="M17 3L20.87 6.7C20.9099 6.73911 20.9416 6.78578 20.9633 6.8373C20.9849 6.88881 20.9961 6.94412 20.9961 7C20.9961 7.05588 20.9849 7.11119 20.9633 7.1627C20.9416 7.21422 20.9099 7.26089 20.87 7.3L17 11" stroke="#353E50" stroke-width="1.5" stroke-linecap="round" stroke-linejoin="round"/>
<path d="M20 17H3" stroke="#353E50" stroke-width="1.5" stroke-linecap="round" stroke-linejoin="round"/>
<path d="M6.99997 21L3.12997 17.3C3.09006 17.2609 3.05835 17.2142 3.0367 17.1627C3.01506 17.1112 3.00391 17.0559 3.00391 17C3.00391 16.9441 3.01506 16.8888 3.0367 16.8373C3.05835 16.7858 3.09006 16.7391 3.12997 16.7L6.99997 13" stroke="#353E50" stroke-width="1.5" stroke-linecap="round" stroke-linejoin="round"/>
</svg>
