<svg width="24" height="24" viewBox="0 0 24 24" fill="none" xmlns="http://www.w3.org/2000/svg">
<path d="M11 19H16.5C17.0913 19.0013 17.6771 18.8858 18.2236 18.6602C18.7702 18.4345 19.2668 18.1031 19.6849 17.6849C20.103 17.2668 20.4345 16.7702 20.6601 16.2236C20.8858 15.6771 21.0013 15.0913 21 14.5C21.0013 13.9087 20.8858 13.3229 20.6601 12.7764C20.4345 12.2298 20.103 11.7332 19.6849 11.3151C19.2668 10.897 18.7702 10.5655 18.2236 10.3399C17.6771 10.1142 17.0913 9.99869 16.5 10H3" stroke="#353E50" stroke-width="1.5" stroke-linecap="round" stroke-linejoin="round"/>
<path d="M8.00012 5L3.27012 9.4C3.18499 9.47507 3.11682 9.5674 3.07012 9.67085C3.02342 9.7743 2.99927 9.8865 2.99927 10C2.99927 10.1135 3.02342 10.2257 3.07012 10.3292C3.11682 10.4326 3.18499 10.5249 3.27012 10.6L8.00012 15" stroke="#353E50" stroke-width="1.5" stroke-linecap="round" stroke-linejoin="round"/>
</svg>
