<svg width="24" height="24" viewBox="0 0 24 24" fill="none" xmlns="http://www.w3.org/2000/svg">
<path d="M14.75 3C14.75 2.58579 14.4142 2.25 14 2.25C13.5858 2.25 13.25 2.58579 13.25 3H14.75ZM5.75 11C5.75 10.5858 5.41421 10.25 5 10.25C4.58579 10.25 4.25 10.5858 4.25 11H5.75ZM13.25 3V16.5H14.75V3H13.25ZM5.75 16.5V11H4.25V16.5H5.75ZM9.5 20.25C7.42893 20.25 5.75 18.5711 5.75 16.5H4.25C4.25 19.3995 6.60051 21.75 9.5 21.75V20.25ZM13.25 16.5C13.25 18.5711 11.5711 20.25 9.5 20.25V21.75C12.3995 21.75 14.75 19.3995 14.75 16.5H13.25Z" fill="#353E50"/>
<path d="M19 8L14.6 3.27C14.5249 3.18487 14.4326 3.11669 14.3292 3.07C14.2257 3.0233 14.1135 2.99915 14 2.99915C13.8865 2.99915 13.7743 3.0233 13.6708 3.07C13.5674 3.11669 13.4751 3.18487 13.4 3.27L9 8" stroke="#353E50" stroke-width="1.5" stroke-linecap="round" stroke-linejoin="round"/>
</svg>
