<svg width="24" height="24" viewBox="0 0 24 24" fill="none" xmlns="http://www.w3.org/2000/svg">
<path d="M5 8L8.87 11.7C8.90991 11.7391 8.94162 11.7858 8.96327 11.8373C8.98491 11.8888 8.99606 11.9441 8.99606 12C8.99606 12.0559 8.98491 12.1112 8.96327 12.1627C8.94162 12.2142 8.90991 12.2609 8.87 12.3L5 16" stroke="#353E50" stroke-width="1.5" stroke-linecap="round" stroke-linejoin="round"/>
<path d="M9 12H2" stroke="#353E50" stroke-width="1.5" stroke-linecap="round" stroke-linejoin="round"/>
<path d="M19 8L15.13 11.7C15.0901 11.7391 15.0583 11.7858 15.0367 11.8373C15.0151 11.8888 15.0039 11.9441 15.0039 12C15.0039 12.0559 15.0151 12.1112 15.0367 12.1627C15.0583 12.2142 15.0901 12.2609 15.13 12.3L19 16" stroke="#353E50" stroke-width="1.5" stroke-linecap="round" stroke-linejoin="round"/>
<path d="M15 12H22" stroke="#353E50" stroke-width="1.5" stroke-linecap="round" stroke-linejoin="round"/>
<path d="M12 3V21" stroke="#353E50" stroke-width="1.5" stroke-linecap="round" stroke-linejoin="round"/>
</svg>
