<svg width="24" height="24" viewBox="0 0 24 24" fill="none" xmlns="http://www.w3.org/2000/svg">
<path d="M12 7L15.4 3.27C15.4751 3.18487 15.5674 3.11669 15.6708 3.07C15.7743 3.0233 15.8865 2.99915 16 2.99915C16.1135 2.99915 16.2257 3.0233 16.3292 3.07C16.4326 3.11669 16.5249 3.18487 16.6 3.27L20 7" stroke="#353E50" stroke-width="1.5" stroke-linecap="round" stroke-linejoin="round"/>
<path d="M16 11V3" stroke="#353E50" stroke-width="1.5" stroke-linecap="round" stroke-linejoin="round"/>
<path d="M4 21V17" stroke="#353E50" stroke-width="1.5" stroke-linecap="round" stroke-linejoin="round"/>
<path d="M8.5 21V12" stroke="#353E50" stroke-width="1.5" stroke-linecap="round" stroke-linejoin="round"/>
<path d="M16 21C19 21 19 20 19 18C19 16 19 15 16 15C13 15 13 16 13 18C13 20 13 21 16 21Z" stroke="#353E50" stroke-width="1.5" stroke-linecap="round" stroke-linejoin="round"/>
</svg>
