<svg width="24" height="24" viewBox="0 0 24 24" fill="none" xmlns="http://www.w3.org/2000/svg">
<path d="M21 6.49997L17.85 3.15997C17.8059 3.11079 17.752 3.07145 17.6917 3.04452C17.6314 3.01758 17.566 3.00366 17.5 3.00366C17.434 3.00366 17.3686 3.01758 17.3083 3.04452C17.248 3.07145 17.1941 3.11079 17.15 3.15997L14 6.49997" stroke="#353E50" stroke-width="1.5" stroke-linecap="round" stroke-linejoin="round"/>
<path d="M17.5 3.75V17.75C17.5 18.5456 17.1839 19.3087 16.6213 19.8713C16.0587 20.4339 15.2956 20.75 14.5 20.75C13.7044 20.75 12.9413 20.4339 12.3787 19.8713C11.8161 19.3087 11.5 18.5456 11.5 17.75V10.75C11.5 9.95435 11.1839 9.19129 10.6213 8.62868C10.0587 8.06607 9.29565 7.75 8.5 7.75C7.70435 7.75 6.94129 8.06607 6.37868 8.62868C5.81607 9.19129 5.5 9.95435 5.5 10.75V15.75" stroke="#353E50" stroke-width="1.5" stroke-linecap="round" stroke-linejoin="round"/>
<path d="M5.5 21C6.88071 21 8 19.8807 8 18.5C8 17.1193 6.88071 16 5.5 16C4.11929 16 3 17.1193 3 18.5C3 19.8807 4.11929 21 5.5 21Z" stroke="#353E50" stroke-width="1.5" stroke-linecap="round" stroke-linejoin="round"/>
</svg>
