<svg width="24" height="24" viewBox="0 0 24 24" fill="none" xmlns="http://www.w3.org/2000/svg">
<path d="M8.00012 10L5.27012 12.4C5.18499 12.4751 5.11682 12.5674 5.07012 12.6708C5.02342 12.7743 4.99927 12.8865 4.99927 13C4.99927 13.1135 5.02342 13.2257 5.07012 13.3292C5.11682 13.4326 5.18499 13.5249 5.27012 13.6L8.00012 16" stroke="#353E50" stroke-width="1.5" stroke-linecap="round" stroke-linejoin="round"/>
<path d="M15 20V19.95" stroke="#353E50" stroke-width="1.5" stroke-linecap="round" stroke-linejoin="round"/>
<path d="M15.0001 19.85C15.0167 18.94 14.8485 18.036 14.5057 17.1928C14.1629 16.3496 13.6527 15.5847 13.0058 14.9444C12.3589 14.304 11.5888 13.8016 10.7422 13.4674C9.89556 13.1332 8.98992 12.9742 8.08008 13H5.08008" stroke="#353E50" stroke-width="1.5" stroke-linecap="round" stroke-linejoin="round" stroke-dasharray="0.1 0.1"/>
<path d="M5.05 13H5" stroke="#353E50" stroke-width="1.5" stroke-linecap="round" stroke-linejoin="round"/>
<path d="M19 7L15.6 3.27C15.5249 3.18487 15.4326 3.11669 15.3292 3.07C15.2257 3.0233 15.1135 2.99915 15 2.99915C14.8865 2.99915 14.7743 3.0233 14.6708 3.07C14.5674 3.11669 14.4751 3.18487 14.4 3.27L11 7" stroke="#353E50" stroke-width="1.5" stroke-linecap="round" stroke-linejoin="round"/>
<path d="M15 21V3" stroke="#353E50" stroke-width="1.5" stroke-linecap="round" stroke-linejoin="round"/>
</svg>
