<svg width="24" height="24" viewBox="0 0 24 24" fill="none" xmlns="http://www.w3.org/2000/svg">
<path d="M3 10.9999C3.20806 9.00806 4.07456 7.14247 5.46233 5.69851C6.85009 4.25455 8.67983 3.31472 10.6619 3.02779C12.644 2.74087 14.6651 3.12325 16.4054 4.11439C18.1457 5.10554 19.5056 6.64883 20.27 8.49995" stroke="#353E50" stroke-width="1.5" stroke-linecap="round" stroke-linejoin="round"/>
<path d="M15 9H20.5C20.6326 9 20.7598 8.94732 20.8536 8.85355C20.9473 8.75979 21 8.63261 21 8.5V3" stroke="#353E50" stroke-width="1.5" stroke-linecap="round" stroke-linejoin="round"/>
<path d="M21 13C20.7999 14.9997 19.9363 16.8749 18.5467 18.3268C17.1572 19.7788 15.3216 20.7238 13.3326 21.0114C11.3436 21.299 9.31554 20.9126 7.57163 19.9138C5.82771 18.9149 4.46828 17.3611 3.70996 15.5" stroke="#353E50" stroke-width="1.5" stroke-linecap="round" stroke-linejoin="round"/>
<path d="M9 15H3.5C3.36739 15 3.24021 15.0527 3.14645 15.1464C3.05268 15.2402 3 15.3674 3 15.5V21" stroke="#353E50" stroke-width="1.5" stroke-linecap="round" stroke-linejoin="round"/>
</svg>
