<svg width="24" height="24" viewBox="0 0 24 24" fill="none" xmlns="http://www.w3.org/2000/svg">
<path d="M14 10L19 5" stroke="#353E50" stroke-width="1.5" stroke-linecap="round" stroke-linejoin="round"/>
<path d="M15 4H19.5C19.6326 4 19.7598 4.05268 19.8536 4.14645C19.9473 4.24021 20 4.36739 20 4.5V9" stroke="#353E50" stroke-width="1.5" stroke-linecap="round" stroke-linejoin="round"/>
<path d="M10 14L5 19" stroke="#353E50" stroke-width="1.5" stroke-linecap="round" stroke-linejoin="round"/>
<path d="M9 20H4.5C4.36739 20 4.24021 19.9473 4.14645 19.8536C4.05268 19.7598 4 19.6326 4 19.5V15" stroke="#353E50" stroke-width="1.5" stroke-linecap="round" stroke-linejoin="round"/>
<path d="M10 10L5 5" stroke="#353E50" stroke-width="1.5" stroke-linecap="round" stroke-linejoin="round"/>
<path d="M9 4H4.5C4.36739 4 4.24021 4.05268 4.14645 4.14645C4.05268 4.24021 4 4.36739 4 4.5V9" stroke="#353E50" stroke-width="1.5" stroke-linecap="round" stroke-linejoin="round"/>
<path d="M14 14L19 19" stroke="#353E50" stroke-width="1.5" stroke-linecap="round" stroke-linejoin="round"/>
<path d="M15 20H19.5C19.6326 20 19.7598 19.9473 19.8536 19.8536C19.9473 19.7598 20 19.6326 20 19.5V15" stroke="#353E50" stroke-width="1.5" stroke-linecap="round" stroke-linejoin="round"/>
</svg>
