<svg width="24" height="24" viewBox="0 0 24 24" fill="none" xmlns="http://www.w3.org/2000/svg">
<path d="M4.00002 16.1C3.37868 14.9128 3.03665 13.5994 3.00002 12.26C2.93804 10.1606 3.61227 8.1056 4.90594 6.45097C6.19961 4.79634 8.03124 3.64627 10.0836 3.19995C12.136 2.75363 14.2798 3.03917 16.1438 4.00711C18.0078 4.97505 19.4745 6.56444 20.29 8.49999" stroke="#353E50" stroke-width="1.5" stroke-linecap="round" stroke-linejoin="round"/>
<path d="M15 9H20.5C20.6326 9 20.7598 8.94732 20.8536 8.85355C20.9473 8.75979 21 8.63261 21 8.5V3" stroke="#353E50" stroke-width="1.5" stroke-linecap="round" stroke-linejoin="round"/>
<path d="M20.5 15C19.8637 16.8031 18.6696 18.3566 17.0909 19.4355C15.5123 20.5143 13.6311 21.0623 11.72 21C9.43471 20.9039 7.2692 19.9516 5.65369 18.3324C4.03817 16.7132 3.09088 14.5455 3 12.26" stroke="#353E50" stroke-width="1.5" stroke-linecap="round" stroke-linejoin="round" stroke-dasharray="0.1 3"/>
</svg>
