<svg width="24" height="24" viewBox="0 0 24 24" fill="none" xmlns="http://www.w3.org/2000/svg">
<path d="M3 6.49997L6.15 3.15997C6.19408 3.11079 6.24803 3.07145 6.30834 3.04452C6.36865 3.01758 6.43395 3.00366 6.5 3.00366C6.56605 3.00366 6.63135 3.01758 6.69166 3.04452C6.75197 3.07145 6.80592 3.11079 6.85 3.15997L10 6.49997" stroke="#353E50" stroke-width="1.5" stroke-linecap="round" stroke-linejoin="round"/>
<path d="M6.5 3.75V17.75C6.5 18.5456 6.81607 19.3087 7.37868 19.8713C7.94129 20.4339 8.70435 20.75 9.5 20.75C10.2956 20.75 11.0587 20.4339 11.6213 19.8713C12.1839 19.3087 12.5 18.5456 12.5 17.75V10.75C12.5 9.95435 12.8161 9.19129 13.3787 8.62868C13.9413 8.06607 14.7044 7.75 15.5 7.75C16.2956 7.75 17.0587 8.06607 17.6213 8.62868C18.1839 9.19129 18.5 9.95435 18.5 10.75V15.75" stroke="#353E50" stroke-width="1.5" stroke-linecap="round" stroke-linejoin="round"/>
<path d="M18.5 21C19.8807 21 21 19.8807 21 18.5C21 17.1193 19.8807 16 18.5 16C17.1193 16 16 17.1193 16 18.5C16 19.8807 17.1193 21 18.5 21Z" stroke="#353E50" stroke-width="1.5" stroke-linecap="round" stroke-linejoin="round"/>
</svg>
