<svg width="24" height="24" viewBox="0 0 24 24" fill="none" xmlns="http://www.w3.org/2000/svg">
<path d="M3.5 17.5H10.1729C11.0181 17.5 11.8241 17.1434 12.3927 16.518L15.9049 12.6547C16.2839 12.2377 16.8212 12 17.3847 12H21" stroke="#353E50" stroke-width="1.5" stroke-linecap="round" stroke-linejoin="round"/>
<path d="M6.49997 3L3.15997 6.15C3.11079 6.19408 3.07145 6.24803 3.04452 6.30834C3.01758 6.36865 3.00366 6.43395 3.00366 6.5C3.00366 6.56605 3.01758 6.63135 3.04452 6.69166C3.07145 6.75197 3.11079 6.80592 3.15997 6.85L6.49997 10" stroke="#353E50" stroke-width="1.5" stroke-linecap="round" stroke-linejoin="round"/>
<path d="M6.49997 21L3.15997 17.85C3.11079 17.8059 3.07145 17.752 3.04452 17.6917C3.01758 17.6314 3.00366 17.566 3.00366 17.5C3.00366 17.434 3.01758 17.3686 3.04452 17.3083C3.07145 17.248 3.11079 17.1941 3.15997 17.15L6.49997 14" stroke="#353E50" stroke-width="1.5" stroke-linecap="round" stroke-linejoin="round"/>
<path d="M3.5 6.5H10.0949C10.9852 6.5 11.8296 6.89547 12.3995 7.57945L14 9.5" stroke="#353E50" stroke-width="1.5" stroke-linecap="round" stroke-linejoin="round"/>
</svg>
